<?xml version="1.0" encoding="UTF-8"?>
<!DOCTYPE svg PUBLIC "-//W3C//DTD SVG 1.1//EN" "http://www.w3.org/Graphics/SVG/1.1/DTD/svg11.dtd">
<svg xmlns="http://www.w3.org/2000/svg" version="1.1" width="512px" height="512px" style="shape-rendering:geometricPrecision; text-rendering:geometricPrecision; image-rendering:optimizeQuality; fill-rule:evenodd; clip-rule:evenodd" xmlns:xlink="http://www.w3.org/1999/xlink">
<g><path style="opacity:0.947" fill="#050504" d="M 310.5,35.5 C 312.792,35.2436 314.959,35.5769 317,36.5C 314.343,58.3904 323.51,72.2237 344.5,78C 353.811,79.4791 363.145,80.8124 372.5,82C 389.019,84.3233 401.519,92.49 410,106.5C 411.352,109.72 412.186,113.053 412.5,116.5C 440.36,122.034 455.694,139.034 458.5,167.5C 464.695,167.107 470.695,167.941 476.5,170C 480.619,172.739 482.786,176.573 483,181.5C 483.667,232.167 483.667,282.833 483,333.5C 481.856,346.972 475.023,356.138 462.5,361C 440.201,362.113 417.867,362.946 395.5,363.5C 387.582,384.917 373.082,399.917 352,408.5C 345.432,404.464 338.932,400.298 332.5,396C 328.445,395.768 324.445,395.268 320.5,394.5C 319.113,391.508 317.446,388.675 315.5,386C 310.954,383.385 306.287,381.385 301.5,380C 312.317,392.451 323.484,404.618 335,416.5C 336.529,430.997 333.862,444.664 327,457.5C 316.39,471.715 302.223,477.548 284.5,475C 278.147,474.219 272.48,471.885 267.5,468C 227.54,429.025 193.873,385.358 166.5,337C 161.822,336.231 157.155,335.398 152.5,334.5C 148.626,335.706 144.96,337.372 141.5,339.5C 137.716,336.891 134.049,334.057 130.5,331C 122.59,330.033 114.756,328.866 107,327.5C 103.901,328.965 100.734,330.299 97.5,331.5C 94.2045,330.184 91.2045,328.351 88.5,326C 69.5451,324.044 50.5451,322.711 31.5,322C 28.6012,318.844 28.9345,316.178 32.5,314C 48.9092,307.864 65.5759,302.53 82.5,298C 86.0104,291.599 90.6771,290.766 96.5,295.5C 102.449,294.144 108.449,292.977 114.5,292C 116.604,290.307 118.104,288.14 119,285.5C 123.312,283.893 126.812,285.059 129.5,289C 133.905,289.696 138.239,289.363 142.5,288C 127.523,249.202 108.023,213.035 84,179.5C 69.897,160.562 53.0636,144.562 33.5,131.5C 31.9688,127.895 33.1355,125.562 37,124.5C 72.4197,140.113 104.586,160.613 133.5,186C 137.5,187 141.5,188 145.5,189C 146.278,192.147 147.111,195.313 148,198.5C 160.082,210.525 171.582,223.025 182.5,236C 186.013,236.927 189.513,237.761 193,238.5C 193.375,243.21 194.042,247.877 195,252.5C 199.667,258.5 204.333,264.5 209,270.5C 211.984,273.1 215.484,274.1 219.5,273.5C 219.333,241.498 219.5,209.498 220,177.5C 221.442,173.725 223.942,170.892 227.5,169C 233.769,167.743 240.102,167.243 246.5,167.5C 249.597,142.067 263.931,129.401 289.5,129.5C 284.736,107.201 286.903,85.5347 296,64.5C 300.333,54.5013 305.166,44.8347 310.5,35.5 Z"/></g>
<g><path style="opacity:1" fill="#fdfdfd" d="M 449.5,163.5 C 449.5,164.833 449.5,166.167 449.5,167.5C 384.5,167.5 319.5,167.5 254.5,167.5C 255.457,154.036 262.124,144.536 274.5,139C 280.485,137.058 286.485,137.058 292.5,139C 298.228,141.575 303.562,144.741 308.5,148.5C 310.707,148.119 312.04,146.786 312.5,144.5C 309.431,140.263 305.598,136.929 301,134.5C 296.738,126.031 294.572,117.031 294.5,107.5C 295.529,88.5842 300.696,70.9175 310,54.5C 314.68,71.8452 325.846,82.3452 343.5,86C 357.483,87.1219 371.15,89.7885 384.5,94C 395.398,98.3858 402.064,106.219 404.5,117.5C 398.389,117.26 392.889,118.927 388,122.5C 386.76,125.906 387.927,127.573 391.5,127.5C 423.191,119.676 442.524,131.676 449.5,163.5 Z"/></g>
<g><path style="opacity:0.994" fill="#090909" d="M 404.5,132.5 C 422.483,133.338 433.65,142.338 438,159.5C 436.867,161.211 435.367,161.711 433.5,161C 429.906,154.41 425.24,148.744 419.5,144C 414.806,141.576 409.806,140.243 404.5,140C 401.914,137.506 401.914,135.006 404.5,132.5 Z"/></g>
<g><path style="opacity:1" fill="#f6f8f7" d="M 132.5,229.5 C 136.93,239.358 141.597,249.025 146.5,258.5C 146.337,260.857 146.503,263.19 147,265.5C 147.995,266.066 148.828,266.733 149.5,267.5C 156.655,283.808 164.322,299.808 172.5,315.5C 172.733,317.062 173.4,318.395 174.5,319.5C 180.744,332.328 187.744,344.662 195.5,356.5C 213.149,385.488 233.483,412.488 256.5,437.5C 256.664,440.187 256.497,442.854 256,445.5C 202.978,387.853 162.312,322.186 134,248.5C 122.019,223.187 108.019,199.187 92,176.5C 84.754,167.197 76.9207,158.363 68.5,150C 71.9659,151.066 75.2993,152.733 78.5,155C 99.27,173.762 114.437,196.262 124,222.5C 126.996,224.733 129.829,227.066 132.5,229.5 Z"/></g>
<g><path style="opacity:0.886" fill="#d8d8d8" d="M 449.5,163.5 C 450.451,164.919 450.784,166.585 450.5,168.5C 384.998,168.832 319.665,168.499 254.5,167.5C 319.5,167.5 384.5,167.5 449.5,167.5C 449.5,166.167 449.5,164.833 449.5,163.5 Z"/></g>
<g><path style="opacity:1" fill="#fbfbfb" d="M 475.5,186.5 C 397.833,186.333 320.166,186.5 242.5,187C 241.069,187.465 239.903,188.299 239,189.5C 238.501,194.489 238.334,199.489 238.5,204.5C 234.833,204.5 231.167,204.5 227.5,204.5C 227.334,196.16 227.5,187.827 228,179.5C 228.833,178 230,176.833 231.5,176C 311.167,175.333 390.833,175.333 470.5,176C 474.692,178.22 476.359,181.72 475.5,186.5 Z"/></g>
<g><path style="opacity:1" fill="#f8fbf9" d="M 129.5,192.5 C 132.804,199.23 135.637,206.23 138,213.5C 141.632,216.13 144.965,219.13 148,222.5C 152.08,230.329 156.413,237.996 161,245.5C 161.173,249.541 161.673,253.541 162.5,257.5C 166.492,259.997 169.992,262.997 173,266.5C 181.029,279.874 186.196,294.207 188.5,309.5C 191.596,311.131 194.43,313.131 197,315.5C 201,322.167 205,328.833 209,335.5C 210.195,339.751 210.695,344.085 210.5,348.5C 214.982,349.663 218.816,351.996 222,355.5C 236.215,378.39 253.382,398.89 273.5,417C 280.679,420.878 288.346,422.711 296.5,422.5C 305.344,422.248 314.011,420.915 322.5,418.5C 307.692,426.076 292.026,428.243 275.5,425C 270.275,423.721 265.609,421.388 261.5,418C 243.151,400.425 227.318,380.925 214,359.5C 210.688,356.344 207.021,353.677 203,351.5C 202.94,346.61 201.94,341.943 200,337.5C 196.333,331.5 192.667,325.5 189,319.5C 186.781,316.639 183.947,314.639 180.5,313.5C 179.673,309.541 179.173,305.541 179,301.5C 174.822,290.143 169.822,279.143 164,268.5C 161,266.167 158,263.833 155,261.5C 155.41,254.911 153.743,248.911 150,243.5C 146.415,237.998 143.081,232.331 140,226.5C 136.965,223.13 133.632,220.13 130,217.5C 124.609,202.464 117.109,188.63 107.5,176C 108.167,175.333 108.833,175.333 109.5,176C 115.749,182.09 122.416,187.59 129.5,192.5 Z"/></g>
<g><path style="opacity:1" fill="#fee54f" d="M 475.5,186.5 C 475.5,192.5 475.5,198.5 475.5,204.5C 396.5,204.5 317.5,204.5 238.5,204.5C 238.334,199.489 238.501,194.489 239,189.5C 239.903,188.299 241.069,187.465 242.5,187C 320.166,186.5 397.833,186.333 475.5,186.5 Z"/></g>
<g><path style="opacity:1" fill="#4ee780" d="M 129.5,192.5 C 132.472,194.65 135.805,195.65 139.5,195.5C 139.523,197.927 140.023,200.26 141,202.5C 153.868,215.699 166.368,229.199 178.5,243C 181.063,244.079 183.729,244.579 186.5,244.5C 186.113,249.08 186.947,253.414 189,257.5C 194.833,264.667 200.667,271.833 206.5,279C 210.014,280.562 213.681,281.395 217.5,281.5C 217.459,288.419 219.292,294.753 223,300.5C 230.5,309.333 238,318.167 245.5,327C 248.726,328.199 252.059,328.699 255.5,328.5C 254.968,333.949 256.134,338.949 259,343.5C 281.019,368.018 302.852,392.685 324.5,417.5C 324.043,418.298 323.376,418.631 322.5,418.5C 314.011,420.915 305.344,422.248 296.5,422.5C 288.346,422.711 280.679,420.878 273.5,417C 253.382,398.89 236.215,378.39 222,355.5C 218.816,351.996 214.982,349.663 210.5,348.5C 210.695,344.085 210.195,339.751 209,335.5C 205,328.833 201,322.167 197,315.5C 194.43,313.131 191.596,311.131 188.5,309.5C 186.196,294.207 181.029,279.874 173,266.5C 169.992,262.997 166.492,259.997 162.5,257.5C 161.673,253.541 161.173,249.541 161,245.5C 156.413,237.996 152.08,230.329 148,222.5C 144.965,219.13 141.632,216.13 138,213.5C 135.637,206.23 132.804,199.23 129.5,192.5 Z"/></g>
<g><path style="opacity:1" fill="#fcfcfc" d="M 368.5,310.5 C 371.167,310.5 373.833,310.5 376.5,310.5C 376.511,312.017 377.177,313.184 378.5,314C 395.833,314.667 413.167,314.667 430.5,314C 434.333,312.833 436.833,310.333 438,306.5C 438.167,297 438.333,287.5 438.5,278C 438.644,267.739 438.144,257.572 437,247.5C 435.337,245.083 433.171,243.25 430.5,242C 395.833,241.333 361.167,241.333 326.5,242C 325.167,244 325.167,246 326.5,248C 360.167,248.333 393.833,248.667 427.5,249C 430.693,250.026 432.026,252.192 431.5,255.5C 381.499,255.333 331.499,255.5 281.5,256C 281,256.5 280.5,257 280,257.5C 279.5,269.829 279.333,282.162 279.5,294.5C 276.482,294.296 273.482,293.963 270.5,293.5C 270.184,279.118 270.517,264.785 271.5,250.5C 272.025,249.808 272.692,249.308 273.5,249C 283.167,248.667 292.833,248.333 302.5,248C 303.833,246 303.833,244 302.5,242C 291.833,241.333 281.167,241.333 270.5,242C 268.376,243.122 266.543,244.622 265,246.5C 263.548,261.762 263.048,277.095 263.5,292.5C 251.516,291.002 239.516,289.669 227.5,288.5C 227.5,263.167 227.5,237.833 227.5,212.5C 310.167,212.5 392.833,212.5 475.5,212.5C 475.667,253.501 475.5,294.501 475,335.5C 472.936,345.231 467.103,351.397 457.5,354C 437.503,354.5 417.503,354.667 397.5,354.5C 398.507,345.856 398.673,337.189 398,328.5C 397.167,327.667 396.333,326.833 395.5,326C 387.721,323.027 379.887,320.194 372,317.5C 369.985,315.639 368.818,313.305 368.5,310.5 Z"/></g>
<g><path style="opacity:1" fill="#010101" d="M 376.5,310.5 C 376.804,309.85 377.137,309.183 377.5,308.5C 394.867,307.82 412.201,307.154 429.5,306.5C 430.192,305.975 430.692,305.308 431,304.5C 431.5,288.17 431.667,271.837 431.5,255.5C 432.026,252.192 430.693,250.026 427.5,249C 393.833,248.667 360.167,248.333 326.5,248C 325.167,246 325.167,244 326.5,242C 361.167,241.333 395.833,241.333 430.5,242C 433.171,243.25 435.337,245.083 437,247.5C 438.144,257.572 438.644,267.739 438.5,278C 438.333,287.5 438.167,297 438,306.5C 436.833,310.333 434.333,312.833 430.5,314C 413.167,314.667 395.833,314.667 378.5,314C 377.177,313.184 376.511,312.017 376.5,310.5 Z"/></g>
<g><path style="opacity:1" fill="#5be286" d="M 132.5,229.5 C 137.226,236.602 141.726,243.936 146,251.5C 146.497,253.81 146.663,256.143 146.5,258.5C 141.597,249.025 136.93,239.358 132.5,229.5 Z"/></g>
<g><path style="opacity:1" fill="#fee451" d="M 431.5,255.5 C 431.667,271.837 431.5,288.17 431,304.5C 430.692,305.308 430.192,305.975 429.5,306.5C 412.201,307.154 394.867,307.82 377.5,308.5C 377.137,309.183 376.804,309.85 376.5,310.5C 373.833,310.5 371.167,310.5 368.5,310.5C 367.777,308.787 366.443,307.787 364.5,307.5C 361.222,308.943 358.055,310.609 355,312.5C 348.232,310.433 341.399,308.6 334.5,307C 331.107,305.273 328.774,302.606 327.5,299C 326.667,298.833 325.833,298.667 325,298.5C 321.793,299.375 318.793,300.709 316,302.5C 309.169,301 302.336,299.5 295.5,298C 293.126,295.961 291.126,293.628 289.5,291C 288.667,290.833 287.833,290.667 287,290.5C 284.395,291.597 281.895,292.93 279.5,294.5C 279.333,282.162 279.5,269.829 280,257.5C 280.5,257 281,256.5 281.5,256C 331.499,255.5 381.499,255.333 431.5,255.5 Z"/></g>
<g><path style="opacity:1" fill="#54e483" d="M 149.5,267.5 C 152.663,268.321 155.33,269.988 157.5,272.5C 163.41,282.321 168.244,292.654 172,303.5C 172.499,307.486 172.666,311.486 172.5,315.5C 164.322,299.808 156.655,283.808 149.5,267.5 Z"/></g>
<g><path style="opacity:1" fill="#f7f8f7" d="M 151.5,305.5 C 144.966,305.733 138.466,305.4 132,304.5C 122.515,307.948 112.682,310.281 102.5,311.5C 100.962,311.327 99.4622,310.994 98,310.5C 96.1769,311.651 94.3436,312.818 92.5,314C 88.5727,314.724 84.906,315.891 81.5,317.5C 72.1618,316.809 62.8284,315.976 53.5,315C 63.6978,311.534 74.0311,308.534 84.5,306C 87.0758,305.218 89.0758,303.718 90.5,301.5C 92.1831,302.592 94.0164,303.259 96,303.5C 103.833,302 111.666,300.5 119.5,299C 121.019,297.649 122.352,296.149 123.5,294.5C 124.7,295.531 126.034,296.365 127.5,297C 134.183,296.61 140.849,296.776 147.5,297.5C 148.654,300.32 149.987,302.986 151.5,305.5 Z"/></g>
<g><path style="opacity:1" fill="#f9faf9" d="M 242.5,297.5 C 246.573,303.747 251.24,309.581 256.5,315C 260.637,316.062 264.804,316.895 269,317.5C 269.109,322.614 269.776,327.614 271,332.5C 278.618,340.906 286.118,349.406 293.5,358C 305.075,362.787 316.408,368.12 327.5,374C 329.5,376 331.5,378 333.5,380C 336.044,381.092 338.711,381.759 341.5,382C 343.862,383.511 346.195,385.011 348.5,386.5C 348.665,389.85 348.498,393.183 348,396.5C 341.395,391.039 333.895,387.706 325.5,386.5C 324.07,383.567 322.07,381.067 319.5,379C 308.337,373.28 297.004,367.947 285.5,363C 278.333,354.5 271.167,346 264,337.5C 262.675,332.867 262.175,328.201 262.5,323.5C 261.975,322.808 261.308,322.308 260.5,322C 256.833,321.667 253.167,321.333 249.5,321C 242.833,313 236.167,305 229.5,297C 233.819,296.924 238.152,297.091 242.5,297.5 Z"/></g>
<g><path style="opacity:1" fill="#28b965" d="M 242.5,297.5 C 254.004,298.709 265.504,300.042 277,301.5C 280.187,301.606 283.187,300.939 286,299.5C 288.112,300.608 289.946,302.108 291.5,304C 299.481,305.896 307.481,307.73 315.5,309.5C 318.435,309.104 321.102,308.104 323.5,306.5C 325.356,309.19 327.689,311.356 330.5,313C 338.647,315.245 346.814,317.412 355,319.5C 357.568,319.049 359.902,318.049 362,316.5C 363.377,318.754 364.877,320.92 366.5,323C 372.612,325.147 378.612,327.48 384.5,330C 364.19,343.488 352.19,362.322 348.5,386.5C 346.195,385.011 343.862,383.511 341.5,382C 338.711,381.759 336.044,381.092 333.5,380C 331.5,378 329.5,376 327.5,374C 316.408,368.12 305.075,362.787 293.5,358C 286.118,349.406 278.618,340.906 271,332.5C 269.776,327.614 269.109,322.614 269,317.5C 264.804,316.895 260.637,316.062 256.5,315C 251.24,309.581 246.573,303.747 242.5,297.5 Z"/></g>
<g><path style="opacity:1" fill="#2cb966" d="M 151.5,305.5 C 155.153,312.807 158.82,320.14 162.5,327.5C 161.833,327.833 161.167,328.167 160.5,328.5C 154.135,325.523 147.968,325.856 142,329.5C 139.511,327.681 137.011,325.848 134.5,324C 125.53,322.6 116.53,321.433 107.5,320.5C 104.328,320.449 101.328,321.116 98.5,322.5C 93.3371,319.28 87.6704,317.613 81.5,317.5C 84.906,315.891 88.5727,314.724 92.5,314C 94.3436,312.818 96.1769,311.651 98,310.5C 99.4622,310.994 100.962,311.327 102.5,311.5C 112.682,310.281 122.515,307.948 132,304.5C 138.466,305.4 144.966,305.733 151.5,305.5 Z"/></g>
<g><path style="opacity:1" fill="#54e282" d="M 174.5,319.5 C 177.769,319.884 180.603,321.218 183,323.5C 186.667,329.5 190.333,335.5 194,341.5C 195.388,346.372 195.888,351.372 195.5,356.5C 187.744,344.662 180.744,332.328 174.5,319.5 Z"/></g>
<g><path style="opacity:1" fill="#f8f9f8" d="M 390.5,348.5 C 390.631,347.761 390.464,347.094 390,346.5C 376.081,358.337 367.914,373.337 365.5,391.5C 363.125,394.025 360.291,396.025 357,397.5C 355.921,376.069 363.087,357.903 378.5,343C 382.332,340.25 386.332,337.75 390.5,335.5C 391.811,339.984 391.811,344.317 390.5,348.5 Z"/></g>
<g><path style="opacity:1" fill="#d6fbb0" d="M 390.5,348.5 C 388.585,366.676 380.251,381.01 365.5,391.5C 367.914,373.337 376.081,358.337 390,346.5C 390.464,347.094 390.631,347.761 390.5,348.5 Z"/></g>
<g><path style="opacity:1" fill="#53e582" d="M 195.5,356.5 C 200.173,357.92 204.34,360.253 208,363.5C 221.366,385.184 237.366,404.851 256,422.5C 256.499,427.489 256.666,432.489 256.5,437.5C 233.483,412.488 213.149,385.488 195.5,356.5 Z"/></g>
<g><path style="opacity:1" fill="#fbfcfb" d="M 326.5,436.5 C 320.516,439.414 314.183,441.247 307.5,442C 297.731,442.74 288.064,442.407 278.5,441C 272.302,443.538 270.135,448.038 272,454.5C 273.144,457.08 273.978,459.747 274.5,462.5C 266.546,455.594 262.88,446.761 263.5,436C 263.833,433.5 264.167,431 264.5,428.5C 278.349,435.061 292.682,436.228 307.5,432C 314.009,430.33 320.342,428.164 326.5,425.5C 327.46,429.139 327.46,432.805 326.5,436.5 Z"/></g>
<g><path style="opacity:1" fill="#d7fdb0" d="M 326.5,436.5 C 321.394,460.234 306.727,470.401 282.5,467C 279.316,466.246 276.649,464.746 274.5,462.5C 273.978,459.747 273.144,457.08 272,454.5C 270.135,448.038 272.302,443.538 278.5,441C 288.064,442.407 297.731,442.74 307.5,442C 314.183,441.247 320.516,439.414 326.5,436.5 Z"/></g>
</svg>
