<?xml version="1.0" encoding="UTF-8"?>
<!DOCTYPE svg PUBLIC "-//W3C//DTD SVG 1.1//EN" "http://www.w3.org/Graphics/SVG/1.1/DTD/svg11.dtd">
<svg xmlns="http://www.w3.org/2000/svg" version="1.1" width="512px" height="512px" style="shape-rendering:geometricPrecision; text-rendering:geometricPrecision; image-rendering:optimizeQuality; fill-rule:evenodd; clip-rule:evenodd" xmlns:xlink="http://www.w3.org/1999/xlink">
<g><path style="opacity:0.941" fill="#030303" d="M 210.5,40.5 C 213.368,40.085 215.535,41.085 217,43.5C 233.943,90.7162 243.11,139.383 244.5,189.5C 244.698,202.236 243.865,214.903 242,227.5C 235.769,261.99 228.769,296.323 221,330.5C 212.34,370.422 209.34,410.755 212,451.5C 209.735,460.763 204.235,467.263 195.5,471C 175.543,472.605 155.543,472.939 135.5,472C 123.333,469.833 116.167,462.667 114,450.5C 114.294,427.059 112.961,403.725 110,380.5C 107.049,338.489 113.049,297.822 128,258.5C 142.118,225.597 156.785,192.93 172,160.5C 188.579,121.601 201.412,81.6007 210.5,40.5 Z"/></g>
<g><path style="opacity:0.944" fill="#030404" d="M 374.5,471.5 C 367.786,446.98 365.286,421.98 367,396.5C 368.545,376.349 371.212,356.349 375,336.5C 382.162,302.854 389.162,269.187 396,235.5C 399.71,215.806 400.877,196.139 399.5,176.5C 399.5,174.167 399.5,171.833 399.5,169.5C 398.883,156.888 397.217,144.555 394.5,132.5C 391.963,115.647 388.463,98.9806 384,82.5C 385.971,107.082 386.971,131.749 387,156.5C 388.638,161.08 390.471,165.58 392.5,170C 387.202,177.598 383.535,185.931 381.5,195C 382.615,202.959 384.282,210.792 386.5,218.5C 381.872,223.299 377.372,228.299 373,233.5C 372.149,239.942 372.649,246.275 374.5,252.5C 371.284,257.226 367.451,261.559 363,265.5C 362,267.167 361,268.833 360,270.5C 360.576,278.192 361.243,285.859 362,293.5C 356.588,298.241 351.921,303.574 348,309.5C 347.584,319.174 348.75,328.674 351.5,338C 346.873,346.423 343.206,355.256 340.5,364.5C 341.027,367.581 341.86,370.581 343,373.5C 345.912,378.158 348.412,382.991 350.5,388C 346.596,396.877 343.596,406.044 341.5,415.5C 343.032,433.092 346.032,450.425 350.5,467.5C 350.315,468.584 349.982,469.584 349.5,470.5C 348.252,472.69 346.586,473.023 344.5,471.5C 337.779,449.958 334.946,427.958 336,405.5C 338.17,399.828 340.336,394.162 342.5,388.5C 340.351,384.203 338.185,379.87 336,375.5C 332.667,368.167 332.667,360.833 336,353.5C 338.503,347.828 341.003,342.162 343.5,336.5C 341.112,326.956 340.279,317.29 341,307.5C 345.095,300.74 349.928,294.574 355.5,289C 353.518,282.282 352.685,275.449 353,268.5C 356.197,262.297 360.53,256.964 366,252.5C 365.148,246.221 364.815,239.887 365,233.5C 366.08,231.004 367.414,228.67 369,226.5C 372.549,223.287 375.716,219.787 378.5,216C 375.896,207.335 374.729,198.501 375,189.5C 377.364,182.439 380.531,175.772 384.5,169.5C 378.293,156.444 376.627,142.777 379.5,128.5C 379.521,118.633 378.854,108.967 377.5,99.5C 376.947,90.1463 376.114,80.8129 375,71.5C 367.876,96.204 359.543,120.537 350,144.5C 344.927,150.244 339.26,155.244 333,159.5C 333.414,166.81 333.414,174.143 333,181.5C 330.285,191.222 324.285,198.222 315,202.5C 314.978,212.703 313.645,222.703 311,232.5C 306.207,239.624 299.874,244.957 292,248.5C 292.99,257.116 293.323,265.783 293,274.5C 292.197,277.244 291.197,279.911 290,282.5C 285.601,288.722 281.435,295.055 277.5,301.5C 280.14,312.026 280.974,322.693 280,333.5C 277.504,341.321 274.337,348.821 270.5,356C 272.248,360.998 274.415,365.832 277,370.5C 279.117,375.848 280.617,381.348 281.5,387C 280.417,396.997 278.084,406.664 274.5,416C 279.333,421.5 284.167,427 289,432.5C 293.138,443.247 297.471,453.914 302,464.5C 302.495,466.473 302.662,468.473 302.5,470.5C 300.33,471.768 298.163,471.768 296,470.5C 290.943,459.328 286.276,447.995 282,436.5C 277.367,430.865 272.367,425.532 267,420.5C 266.333,418.5 266.333,416.5 267,414.5C 270.248,405.761 272.414,396.761 273.5,387.5C 272.847,383.039 271.68,378.706 270,374.5C 266.962,368.369 264.129,362.203 261.5,356C 264.175,350.149 267.008,344.316 270,338.5C 271.787,334.686 272.954,330.686 273.5,326.5C 272.586,317.348 270.919,308.348 268.5,299.5C 273.862,291.97 279.029,284.303 284,276.5C 284.818,273.893 285.318,271.226 285.5,268.5C 284.33,260.494 283.496,252.494 283,244.5C 290.541,241.064 297.208,236.398 303,230.5C 304.743,227.043 305.743,223.377 306,219.5C 306.333,212.833 306.667,206.167 307,199.5C 310.64,195.75 314.807,192.583 319.5,190C 323.999,185.868 325.999,180.701 325.5,174.5C 325.197,169.101 324.53,163.768 323.5,158.5C 326.683,154.156 330.683,150.656 335.5,148C 339.422,144.749 342.588,140.916 345,136.5C 357.047,106.028 366.047,74.6948 372,42.5C 375.012,39.7501 377.679,40.0834 380,43.5C 399.855,97.435 408.855,153.102 407,210.5C 406.281,218.535 405.281,226.535 404,234.5C 396.826,270.198 389.492,305.865 382,341.5C 375.874,371.886 373.541,402.552 375,433.5C 375.969,444.646 377.802,455.646 380.5,466.5C 380.338,470.326 378.338,471.993 374.5,471.5 Z"/></g>
<g><path style="opacity:1" fill="#fbfcfb" d="M 219.5,79.5 C 207.979,123.871 191.979,166.537 171.5,207.5C 167.486,207.666 163.486,207.499 159.5,207C 182.993,160.192 201.16,111.359 214,60.5C 216.343,66.6938 218.176,73.0272 219.5,79.5 Z"/></g>
<g><path style="opacity:0.998" fill="#f8faf9" d="M 377.5,99.5 C 371.634,115.262 365.467,130.928 359,146.5C 353.978,152.186 348.311,157.186 342,161.5C 342.93,170.501 342.597,179.501 341,188.5C 336.948,195.552 331.281,200.886 324,204.5C 324.031,215.022 322.697,225.356 320,235.5C 318.542,237.96 316.709,240.127 314.5,242C 309.578,245.28 304.911,248.78 300.5,252.5C 302.778,261.815 302.944,271.149 301,280.5C 296.784,288.442 291.95,295.942 286.5,303C 289.359,312.65 290.526,322.484 290,332.5C 287.473,341.389 283.973,349.889 279.5,358C 284.89,367.768 288.557,378.102 290.5,389C 289.523,398.553 287.523,407.886 284.5,417C 284.667,417.833 284.833,418.667 285,419.5C 290.377,425.208 295.377,431.208 300,437.5C 303.197,446.092 306.197,454.758 309,463.5C 310.012,466.202 311.512,468.535 313.5,470.5C 309.833,470.5 306.167,470.5 302.5,470.5C 302.662,468.473 302.495,466.473 302,464.5C 297.471,453.914 293.138,443.247 289,432.5C 284.167,427 279.333,421.5 274.5,416C 278.084,406.664 280.417,396.997 281.5,387C 280.617,381.348 279.117,375.848 277,370.5C 274.415,365.832 272.248,360.998 270.5,356C 274.337,348.821 277.504,341.321 280,333.5C 280.974,322.693 280.14,312.026 277.5,301.5C 281.435,295.055 285.601,288.722 290,282.5C 291.197,279.911 292.197,277.244 293,274.5C 293.323,265.783 292.99,257.116 292,248.5C 299.874,244.957 306.207,239.624 311,232.5C 313.645,222.703 314.978,212.703 315,202.5C 324.285,198.222 330.285,191.222 333,181.5C 333.414,174.143 333.414,166.81 333,159.5C 339.26,155.244 344.927,150.244 350,144.5C 359.543,120.537 367.876,96.204 375,71.5C 376.114,80.8129 376.947,90.1463 377.5,99.5 Z"/></g>
<g><path style="opacity:1" fill="#d7feaf" d="M 219.5,79.5 C 236.912,132.397 241.079,186.397 232,241.5C 224.68,274.778 217.68,308.112 211,341.5C 207.185,362.687 204.685,384.02 203.5,405.5C 178.5,405.5 153.5,405.5 128.5,405.5C 125.885,388.612 125.051,371.612 126,354.5C 128.079,348.753 131.912,344.586 137.5,342C 155.167,341.667 172.833,341.333 190.5,341C 192.314,338.519 192.98,335.685 192.5,332.5C 192.783,331.711 193.283,331.044 194,330.5C 194.667,290.167 194.667,249.833 194,209.5C 193.25,208.874 192.416,208.374 191.5,208C 184.842,207.5 178.175,207.334 171.5,207.5C 191.979,166.537 207.979,123.871 219.5,79.5 Z"/></g>
<g><path style="opacity:0.999" fill="#f8faf9" d="M 394.5,132.5 C 394.334,141.173 394.5,149.84 395,158.5C 395.994,162.474 397.494,166.14 399.5,169.5C 399.5,171.833 399.5,174.167 399.5,176.5C 396.153,181.861 393.319,187.528 391,193.5C 390.333,197.167 390.333,200.833 391,204.5C 392.146,211.212 393.146,217.879 394,224.5C 389.946,228.554 385.946,232.554 382,236.5C 380.994,238.534 380.494,240.7 380.5,243C 381.663,248.468 382.163,253.968 382,259.5C 376.621,263.212 372.287,267.879 369,273.5C 368.697,281.317 369.363,288.983 371,296.5C 365.588,301.241 360.921,306.574 357,312.5C 356.031,322.153 356.864,331.653 359.5,341C 356.203,348.43 353.036,355.93 350,363.5C 349.209,367.926 349.543,372.259 351,376.5C 353.46,381.923 356.293,387.09 359.5,392C 354.466,400.721 351.466,410.055 350.5,420C 351.734,436.044 354.234,451.878 358,467.5C 359.045,468.373 359.878,469.373 360.5,470.5C 356.833,470.5 353.167,470.5 349.5,470.5C 349.982,469.584 350.315,468.584 350.5,467.5C 346.032,450.425 343.032,433.092 341.5,415.5C 343.596,406.044 346.596,396.877 350.5,388C 348.412,382.991 345.912,378.158 343,373.5C 341.86,370.581 341.027,367.581 340.5,364.5C 343.206,355.256 346.873,346.423 351.5,338C 348.75,328.674 347.584,319.174 348,309.5C 351.921,303.574 356.588,298.241 362,293.5C 361.243,285.859 360.576,278.192 360,270.5C 361,268.833 362,267.167 363,265.5C 367.451,261.559 371.284,257.226 374.5,252.5C 372.649,246.275 372.149,239.942 373,233.5C 377.372,228.299 381.872,223.299 386.5,218.5C 384.282,210.792 382.615,202.959 381.5,195C 383.535,185.931 387.202,177.598 392.5,170C 390.471,165.58 388.638,161.08 387,156.5C 386.971,131.749 385.971,107.082 384,82.5C 388.463,98.9806 391.963,115.647 394.5,132.5 Z"/></g>
<g><path style="opacity:1" fill="#27b965" d="M 377.5,99.5 C 378.854,108.967 379.521,118.633 379.5,128.5C 376.627,142.777 378.293,156.444 384.5,169.5C 380.531,175.772 377.364,182.439 375,189.5C 374.729,198.501 375.896,207.335 378.5,216C 375.716,219.787 372.549,223.287 369,226.5C 367.414,228.67 366.08,231.004 365,233.5C 364.815,239.887 365.148,246.221 366,252.5C 360.53,256.964 356.197,262.297 353,268.5C 352.685,275.449 353.518,282.282 355.5,289C 349.928,294.574 345.095,300.74 341,307.5C 340.279,317.29 341.112,326.956 343.5,336.5C 341.003,342.162 338.503,347.828 336,353.5C 332.667,360.833 332.667,368.167 336,375.5C 338.185,379.87 340.351,384.203 342.5,388.5C 340.336,394.162 338.17,399.828 336,405.5C 334.946,427.958 337.779,449.958 344.5,471.5C 337.482,471.434 330.482,471.768 323.5,472.5C 319.971,472.599 316.637,471.933 313.5,470.5C 311.512,468.535 310.012,466.202 309,463.5C 306.197,454.758 303.197,446.092 300,437.5C 295.377,431.208 290.377,425.208 285,419.5C 284.833,418.667 284.667,417.833 284.5,417C 287.523,407.886 289.523,398.553 290.5,389C 288.557,378.102 284.89,367.768 279.5,358C 283.973,349.889 287.473,341.389 290,332.5C 290.526,322.484 289.359,312.65 286.5,303C 291.95,295.942 296.784,288.442 301,280.5C 302.944,271.149 302.778,261.815 300.5,252.5C 304.911,248.78 309.578,245.28 314.5,242C 316.709,240.127 318.542,237.96 320,235.5C 322.697,225.356 324.031,215.022 324,204.5C 331.281,200.886 336.948,195.552 341,188.5C 342.597,179.501 342.93,170.501 342,161.5C 348.311,157.186 353.978,152.186 359,146.5C 365.467,130.928 371.634,115.262 377.5,99.5 Z"/></g>
<g><path style="opacity:1" fill="#3ab26b" d="M 394.5,132.5 C 397.217,144.555 398.883,156.888 399.5,169.5C 397.494,166.14 395.994,162.474 395,158.5C 394.5,149.84 394.334,141.173 394.5,132.5 Z"/></g>
<g><path style="opacity:0.999" fill="#2ab966" d="M 399.5,176.5 C 400.877,196.139 399.71,215.806 396,235.5C 389.162,269.187 382.162,302.854 375,336.5C 371.212,356.349 368.545,376.349 367,396.5C 365.286,421.98 367.786,446.98 374.5,471.5C 369.737,471.774 365.07,471.441 360.5,470.5C 359.878,469.373 359.045,468.373 358,467.5C 354.234,451.878 351.734,436.044 350.5,420C 351.466,410.055 354.466,400.721 359.5,392C 356.293,387.09 353.46,381.923 351,376.5C 349.543,372.259 349.209,367.926 350,363.5C 353.036,355.93 356.203,348.43 359.5,341C 356.864,331.653 356.031,322.153 357,312.5C 360.921,306.574 365.588,301.241 371,296.5C 369.363,288.983 368.697,281.317 369,273.5C 372.287,267.879 376.621,263.212 382,259.5C 382.163,253.968 381.663,248.468 380.5,243C 380.494,240.7 380.994,238.534 382,236.5C 385.946,232.554 389.946,228.554 394,224.5C 393.146,217.879 392.146,211.212 391,204.5C 390.333,200.833 390.333,197.167 391,193.5C 393.319,187.528 396.153,181.861 399.5,176.5 Z"/></g>
<g><path style="opacity:1" fill="#fcfcfc" d="M 155.5,215.5 C 166.167,215.5 176.833,215.5 187.5,215.5C 187.5,252.167 187.5,288.833 187.5,325.5C 164.833,325.5 142.167,325.5 119.5,325.5C 121.4,308.836 124.9,292.503 130,276.5C 137.433,255.696 145.933,235.363 155.5,215.5 Z"/></g>
<g><path style="opacity:1" fill="#f5f6f5" d="M 192.5,332.5 C 192.98,335.685 192.314,338.519 190.5,341C 172.833,341.333 155.167,341.667 137.5,342C 131.912,344.586 128.079,348.753 126,354.5C 125.051,371.612 125.885,388.612 128.5,405.5C 126.143,405.663 123.81,405.497 121.5,405C 117.503,381.003 116.503,356.837 118.5,332.5C 143.167,332.5 167.833,332.5 192.5,332.5 Z"/></g>
<g><path style="opacity:1" fill="#f7f7f7" d="M 204.5,421.5 C 182.164,421.333 159.831,421.5 137.5,422C 134.667,423.5 132.5,425.667 131,428.5C 130.501,433.489 130.334,438.489 130.5,443.5C 127.5,443.5 124.5,443.5 121.5,443.5C 121.5,433.167 121.5,422.833 121.5,412.5C 149.167,412.5 176.833,412.5 204.5,412.5C 204.5,415.5 204.5,418.5 204.5,421.5 Z"/></g>
<g><path style="opacity:1" fill="#fee454" d="M 204.5,421.5 C 204.5,428.833 204.5,436.167 204.5,443.5C 196.5,443.5 188.5,443.5 180.5,443.5C 183.232,430.405 178.066,425.738 165,429.5C 151.934,425.738 146.768,430.405 149.5,443.5C 143.167,443.5 136.833,443.5 130.5,443.5C 130.334,438.489 130.501,433.489 131,428.5C 132.5,425.667 134.667,423.5 137.5,422C 159.831,421.5 182.164,421.333 204.5,421.5 Z"/></g>
<g><path style="opacity:1" fill="#fdfbf4" d="M 173.5,439.5 C 169.818,439.335 166.152,439.501 162.5,440C 161.177,440.816 160.511,441.983 160.5,443.5C 159.167,443.5 157.833,443.5 156.5,443.5C 156.5,441.5 156.5,439.5 156.5,437.5C 162.598,436.883 168.265,437.55 173.5,439.5 Z"/></g>
<g><path style="opacity:1" fill="#fde455" d="M 173.5,439.5 C 173.5,440.833 173.5,442.167 173.5,443.5C 169.167,443.5 164.833,443.5 160.5,443.5C 160.511,441.983 161.177,440.816 162.5,440C 166.152,439.501 169.818,439.335 173.5,439.5 Z"/></g>
<g><path style="opacity:1" fill="#edece9" d="M 200.5,457.5 C 178.497,457.333 156.497,457.5 134.5,458C 132.963,459.11 132.297,460.61 132.5,462.5C 126.643,460.64 123.31,456.64 122.5,450.5C 149.5,450.5 176.5,450.5 203.5,450.5C 203.293,453.241 202.293,455.574 200.5,457.5 Z"/></g>
<g><path style="opacity:1" fill="#fee451" d="M 200.5,457.5 C 198.5,460.994 195.5,463.16 191.5,464C 172.5,464.667 153.5,464.667 134.5,464C 133.584,463.722 132.918,463.222 132.5,462.5C 132.297,460.61 132.963,459.11 134.5,458C 156.497,457.5 178.497,457.333 200.5,457.5 Z"/></g>
</svg>
