<?xml version="1.0" encoding="UTF-8"?>
<!DOCTYPE svg PUBLIC "-//W3C//DTD SVG 1.1//EN" "http://www.w3.org/Graphics/SVG/1.1/DTD/svg11.dtd">
<svg xmlns="http://www.w3.org/2000/svg" version="1.1" width="512px" height="512px" style="shape-rendering:geometricPrecision; text-rendering:geometricPrecision; image-rendering:optimizeQuality; fill-rule:evenodd; clip-rule:evenodd" xmlns:xlink="http://www.w3.org/1999/xlink">
<g><path style="opacity:0.95" fill="#040403" d="M 307.5,434.5 C 308.404,433.791 308.737,432.791 308.5,431.5C 308.832,385.33 308.499,339.33 307.5,293.5C 307.5,293.167 307.5,292.833 307.5,292.5C 307.333,234.166 307.5,175.832 308,117.5C 309.722,109.444 314.556,104.277 322.5,102C 327.155,101.501 331.821,101.334 336.5,101.5C 336.333,81.4972 336.5,61.4972 337,41.5C 338.032,35.2747 341.532,31.108 347.5,29C 368.5,28.3333 389.5,28.3333 410.5,29C 415.573,30.4056 419.073,33.5723 421,38.5C 421.5,59.4974 421.667,80.4974 421.5,101.5C 434.137,99.7272 442.637,104.727 447,116.5C 447.992,234.543 447.659,352.543 446,470.5C 442.67,477.417 437.17,481.251 429.5,482C 393.128,482.968 356.794,482.634 320.5,481C 315.09,479.257 311.256,475.757 309,470.5C 307.585,458.562 307.085,446.562 307.5,434.5 Z"/></g>
<g><path style="opacity:1" fill="#fdfdfd" d="M 348.5,36.5 C 354.5,36.5 360.5,36.5 366.5,36.5C 366.109,43.9209 366.609,51.2542 368,58.5C 372.325,64.9408 378.158,66.7741 385.5,64C 388.433,61.7357 390.6,58.9024 392,55.5C 392.5,49.1754 392.666,42.8421 392.5,36.5C 398.176,36.3339 403.843,36.5006 409.5,37C 410.931,37.4652 412.097,38.2986 413,39.5C 413.5,54.1629 413.667,68.8295 413.5,83.5C 390.5,83.5 367.5,83.5 344.5,83.5C 344.333,69.496 344.5,55.496 345,41.5C 345.997,39.6769 347.164,38.0103 348.5,36.5 Z"/></g>
<g><path style="opacity:1" fill="#f4f4f4" d="M 373.5,36.5 C 377.167,36.5 380.833,36.5 384.5,36.5C 384.666,42.8421 384.5,49.1754 384,55.5C 379.882,58.5921 376.549,57.9255 374,53.5C 373.501,47.8431 373.334,42.1764 373.5,36.5 Z"/></g>
<g><path style="opacity:1" fill="#fdfcf7" d="M 413.5,97.5 C 394.164,97.3334 374.83,97.5 355.5,98C 354.619,98.7083 353.953,99.5416 353.5,100.5C 352.833,100.5 352.5,100.833 352.5,101.5C 349.833,101.5 347.167,101.5 344.5,101.5C 344.5,98.1667 344.5,94.8333 344.5,91.5C 367.5,91.5 390.5,91.5 413.5,91.5C 413.5,93.5 413.5,95.5 413.5,97.5 Z"/></g>
<g><path style="opacity:1" fill="#ffe54f" d="M 413.5,97.5 C 413.5,98.8333 413.5,100.167 413.5,101.5C 393.326,101.83 373.326,101.497 353.5,100.5C 353.953,99.5416 354.619,98.7083 355.5,98C 374.83,97.5 394.164,97.3334 413.5,97.5 Z"/></g>
<g><path style="opacity:0.89" fill="#bfaf56" d="M 413.5,97.5 C 414.451,98.9187 414.784,100.585 414.5,102.5C 393.66,102.831 372.993,102.497 352.5,101.5C 352.5,100.833 352.833,100.5 353.5,100.5C 373.326,101.497 393.326,101.83 413.5,101.5C 413.5,100.167 413.5,98.8333 413.5,97.5 Z"/></g>
<g><path style="opacity:1" fill="#fdfefb" d="M 366.5,119.5 C 354.162,119.333 341.829,119.5 329.5,120C 327.667,120.5 326.5,121.667 326,123.5C 325.833,240.334 325.333,357.001 324.5,473.5C 320.255,472.424 317.422,469.758 316,465.5C 315.333,349.5 315.333,233.5 316,117.5C 317.167,113.667 319.667,111.167 323.5,110C 337.829,109.5 352.163,109.333 366.5,109.5C 366.5,112.833 366.5,116.167 366.5,119.5 Z"/></g>
<g><path style="opacity:1" fill="#f5f5f5" d="M 373.5,109.5 C 377.167,109.5 380.833,109.5 384.5,109.5C 384.5,119.167 384.5,128.833 384.5,138.5C 380.833,138.5 377.167,138.5 373.5,138.5C 373.5,128.833 373.5,119.167 373.5,109.5 Z"/></g>
<g><path style="opacity:1" fill="#fcfdfc" d="M 439.5,119.5 C 428.828,119.333 418.161,119.5 407.5,120C 404.619,121.251 402.786,123.417 402,126.5C 401.667,135.5 401.333,144.5 401,153.5C 398.72,155.037 396.22,156.203 393.5,157C 391.951,158.214 390.785,159.714 390,161.5C 387.911,178.098 387.077,194.765 387.5,211.5C 384.5,211.5 381.5,211.5 378.5,211.5C 377.813,189.402 378.813,167.402 381.5,145.5C 384.518,145.665 387.518,145.498 390.5,145C 391,144.5 391.5,144 392,143.5C 392.5,132.172 392.667,120.838 392.5,109.5C 405.504,109.333 418.504,109.5 431.5,110C 436.162,111.495 438.828,114.661 439.5,119.5 Z"/></g>
<g><path style="opacity:1" fill="#d7feaf" d="M 366.5,119.5 C 366.334,127.507 366.5,135.507 367,143.5C 369.135,145.278 371.635,145.945 374.5,145.5C 370.553,167.351 369.553,189.351 371.5,211.5C 364.492,211.334 357.492,211.5 350.5,212C 350,212.5 349.5,213 349,213.5C 348.333,254.833 348.333,296.167 349,337.5C 349.5,338 350,338.5 350.5,339C 365.905,338.857 381.072,339.69 396,341.5C 402.423,387.113 397.589,431.447 381.5,474.5C 362.326,474.83 343.326,474.497 324.5,473.5C 325.333,357.001 325.833,240.334 326,123.5C 326.5,121.667 327.667,120.5 329.5,120C 341.829,119.5 354.162,119.333 366.5,119.5 Z"/></g>
<g><path style="opacity:1" fill="#d8ffb0" d="M 439.5,119.5 C 439.5,150.167 439.5,180.833 439.5,211.5C 422.167,211.5 404.833,211.5 387.5,211.5C 387.077,194.765 387.911,178.098 390,161.5C 390.785,159.714 391.951,158.214 393.5,157C 396.22,156.203 398.72,155.037 401,153.5C 401.333,144.5 401.667,135.5 402,126.5C 402.786,123.417 404.619,121.251 407.5,120C 418.161,119.5 428.828,119.333 439.5,119.5 Z"/></g>
<g><path style="opacity:0.918" fill="#020302" d="M 304.5,290.5 C 303.662,290.842 303.328,291.508 303.5,292.5C 301.598,293.511 299.598,293.678 297.5,293C 275.1,273.988 249.766,259.988 221.5,251C 218.5,248 215.5,245 212.5,242C 206.245,243.057 199.911,243.39 193.5,243C 187.486,239.984 182.153,235.984 177.5,231C 173.719,231.396 169.886,231.896 166,232.5C 163.409,232.435 160.909,231.935 158.5,231C 153.199,226.7 148.199,222.034 143.5,217C 138.5,216.667 133.5,216.333 128.5,216C 120.669,211.644 113.002,207.144 105.5,202.5C 98.345,196.745 91.345,190.745 84.5,184.5C 84.1667,184.667 83.8333,184.833 83.5,185C 101.739,218.913 126.739,246.913 158.5,269C 208.412,295.245 247.579,332.745 276,381.5C 281.339,383.402 286.839,384.735 292.5,385.5C 295.956,386.907 299.456,388.241 303,389.5C 304.072,392.553 303.072,394.553 300,395.5C 289.623,392.491 279.123,389.991 268.5,388C 263.568,385.286 258.735,382.453 254,379.5C 247.57,383.054 240.737,384.221 233.5,383C 229.614,380.89 225.614,379.057 221.5,377.5C 215.963,379.471 210.296,380.305 204.5,380C 200.252,377.757 196.586,374.757 193.5,371C 187.853,371.3 182.186,371.3 176.5,371C 171.58,368.084 167.247,364.418 163.5,360C 156.681,360.195 150.348,358.695 144.5,355.5C 136.803,350.557 129.303,345.224 122,339.5C 143.514,373.988 173.347,398.821 211.5,414C 240.903,424.512 271.236,429.512 302.5,429C 303.406,430.699 303.739,432.533 303.5,434.5C 217.446,439.395 151.946,405.395 107,332.5C 104.467,328.797 103.134,324.797 103,320.5C 105.284,318.016 107.784,317.849 110.5,320C 123.656,331.491 137.656,341.824 152.5,351C 157.5,351.333 162.5,351.667 167.5,352C 170.833,356.667 174.833,360.667 179.5,364C 185.193,363.46 190.86,362.794 196.5,362C 199.13,365.632 202.13,368.965 205.5,372C 211.445,372.413 217.112,371.246 222.5,368.5C 227.663,371.831 233.163,374.498 239,376.5C 244.62,374.794 250.12,372.794 255.5,370.5C 257.8,372.025 260.133,373.191 262.5,374C 243.933,344.901 220.6,320.234 192.5,300C 175.897,289.727 159.563,279.06 143.5,268C 113.241,244.634 89.7414,215.801 73,181.5C 70.2614,175.357 68.0947,169.024 66.5,162.5C 66.5698,161.228 66.9032,160.062 67.5,159C 69.5,158.333 71.5,158.333 73.5,159C 89.224,180.396 108.891,197.063 132.5,209C 137.217,209.476 141.883,209.476 146.5,209C 152.095,215.433 158.428,220.933 165.5,225.5C 170.679,223.491 176.012,222.658 181.5,223C 185.561,229.278 191.061,233.778 198,236.5C 203.822,234.916 209.655,233.749 215.5,233C 218.798,237.3 222.465,241.3 226.5,245C 255.621,253.969 281.454,268.469 304,288.5C 304.464,289.094 304.631,289.761 304.5,290.5 Z"/></g>
<g><path style="opacity:1" fill="#f8faf9" d="M 105.5,202.5 C 121.869,228.037 142.535,249.537 167.5,267C 191.831,280.667 214.497,296.667 235.5,315C 244.914,324.024 253.747,333.524 262,343.5C 271.998,357.658 282.165,371.658 292.5,385.5C 286.839,384.735 281.339,383.402 276,381.5C 247.579,332.745 208.412,295.245 158.5,269C 126.739,246.913 101.739,218.913 83.5,185C 83.8333,184.833 84.1667,184.667 84.5,184.5C 91.345,190.745 98.345,196.745 105.5,202.5 Z"/></g>
<g><path style="opacity:1" fill="#28b965" d="M 105.5,202.5 C 113.002,207.144 120.669,211.644 128.5,216C 133.5,216.333 138.5,216.667 143.5,217C 148.199,222.034 153.199,226.7 158.5,231C 160.909,231.935 163.409,232.435 166,232.5C 169.886,231.896 173.719,231.396 177.5,231C 182.153,235.984 187.486,239.984 193.5,243C 199.911,243.39 206.245,243.057 212.5,242C 215.5,245 218.5,248 221.5,251C 249.766,259.988 275.1,273.988 297.5,293C 299.598,293.678 301.598,293.511 303.5,292.5C 304.833,292.833 306.167,293.167 307.5,293.5C 307.832,338.336 307.499,383.003 306.5,427.5C 274.89,428.048 244.223,422.881 214.5,412C 186.25,399.25 162.917,380.416 144.5,355.5C 150.348,358.695 156.681,360.195 163.5,360C 167.247,364.418 171.58,368.084 176.5,371C 182.186,371.3 187.853,371.3 193.5,371C 196.586,374.757 200.252,377.757 204.5,380C 210.296,380.305 215.963,379.471 221.5,377.5C 225.614,379.057 229.614,380.89 233.5,383C 240.737,384.221 247.57,383.054 254,379.5C 258.735,382.453 263.568,385.286 268.5,388C 279.123,389.991 289.623,392.491 300,395.5C 303.072,394.553 304.072,392.553 303,389.5C 299.456,388.241 295.956,386.907 292.5,385.5C 282.165,371.658 271.998,357.658 262,343.5C 253.747,333.524 244.914,324.024 235.5,315C 214.497,296.667 191.831,280.667 167.5,267C 142.535,249.537 121.869,228.037 105.5,202.5 Z"/></g>
<g><path style="opacity:0.882" fill="#bfbfbf" d="M 439.5,219.5 C 411.833,219.5 384.167,219.5 356.5,219.5C 356.5,256.833 356.5,294.167 356.5,331.5C 355.502,294.004 355.168,256.337 355.5,218.5C 383.672,218.169 411.672,218.502 439.5,219.5 Z"/></g>
<g><path style="opacity:1" fill="#fffefe" d="M 439.5,219.5 C 439.5,222.5 439.5,225.5 439.5,228.5C 419.164,228.333 398.831,228.5 378.5,229C 371.225,231.726 366.892,236.892 365.5,244.5C 364.502,273.329 364.169,302.329 364.5,331.5C 361.833,331.5 359.167,331.5 356.5,331.5C 356.5,294.167 356.5,256.833 356.5,219.5C 384.167,219.5 411.833,219.5 439.5,219.5 Z"/></g>
<g><path style="opacity:1" fill="#ffe54f" d="M 439.5,228.5 C 439.5,262.833 439.5,297.167 439.5,331.5C 414.833,331.5 390.167,331.5 365.5,331.5C 365.5,302.5 365.5,273.5 365.5,244.5C 366.892,236.892 371.225,231.726 378.5,229C 398.831,228.5 419.164,228.333 439.5,228.5 Z"/></g>
<g><path style="opacity:1" fill="#020603" d="M 141.5,230.5 C 143.467,230.261 145.301,230.594 147,231.5C 151.178,246.013 160.678,251.846 175.5,249C 182.451,259.636 192.117,263.303 204.5,260C 211.603,273.053 222.603,279.053 237.5,278C 255.237,290.614 270.403,305.781 283,323.5C 287.78,330.726 291.78,338.392 295,346.5C 296.368,349.738 296.701,353.072 296,356.5C 294.542,357.747 293.042,357.747 291.5,356.5C 286.226,341.276 278.393,327.609 268,315.5C 257.731,304.226 246.565,294.059 234.5,285C 220.299,285.4 209.299,279.734 201.5,268C 188.939,269.464 178.773,265.297 171,255.5C 158.911,257.622 149.911,253.289 144,242.5C 141.344,238.743 140.51,234.743 141.5,230.5 Z"/></g>
<g><path style="opacity:0.424" fill="#f5f7f6" d="M 304.5,290.5 C 305.5,291.167 306.5,291.833 307.5,292.5C 307.5,292.833 307.5,293.167 307.5,293.5C 306.167,293.167 304.833,292.833 303.5,292.5C 303.328,291.508 303.662,290.842 304.5,290.5 Z"/></g>
<g><path style="opacity:0.937" fill="#44b172" d="M 307.5,293.5 C 308.499,339.33 308.832,385.33 308.5,431.5C 307.655,430.329 306.989,428.995 306.5,427.5C 307.499,383.003 307.832,338.336 307.5,293.5 Z"/></g>
<g><path style="opacity:0.871" fill="#c7b96b" d="M 365.5,244.5 C 365.5,273.5 365.5,302.5 365.5,331.5C 390.167,331.5 414.833,331.5 439.5,331.5C 414.5,332.833 389.5,332.833 364.5,331.5C 364.169,302.329 364.502,273.329 365.5,244.5 Z"/></g>
<g><path style="opacity:1" fill="#fbfcfb" d="M 439.5,348.5 C 432.825,348.334 426.158,348.5 419.5,349C 417,350.167 415.167,352 414,354.5C 418.655,395.439 414.488,435.439 401.5,474.5C 397.5,474.5 393.5,474.5 389.5,474.5C 405,430.663 409.667,385.663 403.5,339.5C 415.5,339.5 427.5,339.5 439.5,339.5C 439.5,342.5 439.5,345.5 439.5,348.5 Z"/></g>
<g><path style="opacity:0.998" fill="#f1f3f2" d="M 144.5,355.5 C 162.917,380.416 186.25,399.25 214.5,412C 244.223,422.881 274.89,428.048 306.5,427.5C 306.989,428.995 307.655,430.329 308.5,431.5C 308.737,432.791 308.404,433.791 307.5,434.5C 306.167,434.5 304.833,434.5 303.5,434.5C 303.739,432.533 303.406,430.699 302.5,429C 271.236,429.512 240.903,424.512 211.5,414C 173.347,398.821 143.514,373.988 122,339.5C 129.303,345.224 136.803,350.557 144.5,355.5 Z"/></g>
<g><path style="opacity:1" fill="#d8feb0" d="M 439.5,348.5 C 439.667,387.835 439.5,427.168 439,466.5C 437.833,470.333 435.333,472.833 431.5,474C 421.506,474.5 411.506,474.666 401.5,474.5C 414.488,435.439 418.655,395.439 414,354.5C 415.167,352 417,350.167 419.5,349C 426.158,348.5 432.825,348.334 439.5,348.5 Z"/></g>
</svg>
