<?xml version="1.0" encoding="UTF-8"?>
<!DOCTYPE svg PUBLIC "-//W3C//DTD SVG 1.1//EN" "http://www.w3.org/Graphics/SVG/1.1/DTD/svg11.dtd">
<svg xmlns="http://www.w3.org/2000/svg" version="1.1" width="32px" height="32px" style="shape-rendering:geometricPrecision; text-rendering:geometricPrecision; image-rendering:optimizeQuality; fill-rule:evenodd; clip-rule:evenodd" xmlns:xlink="http://www.w3.org/1999/xlink">
<g><path style="opacity:0.922" fill="#1abb9b" d="M 31.5,6.5 C 31.5,7.5 31.5,8.5 31.5,9.5C 30.5,9.5 29.5,9.5 28.5,9.5C 19.8333,8.16667 11.1667,8.16667 2.5,9.5C 1.5,9.5 0.5,9.5 -0.5,9.5C -0.5,8.5 -0.5,7.5 -0.5,6.5C 4.81719,4.51027 10.1505,2.51027 15.5,0.5C 20.8495,2.51027 26.1828,4.51027 31.5,6.5 Z"/></g>
<g><path style="opacity:0.886" fill="#16a589" d="M 28.5,9.5 C 28.5,10.1667 28.1667,10.5 27.5,10.5C 26.1952,12.3972 25.5286,14.7305 25.5,17.5C 25.5286,20.2695 26.1952,22.6028 27.5,24.5C 28.1667,24.5 28.5,24.8333 28.5,25.5C 19.8333,26.8333 11.1667,26.8333 2.5,25.5C 3.83333,20.1667 3.83333,14.8333 2.5,9.5C 11.1667,8.16667 19.8333,8.16667 28.5,9.5 Z M 7.5,10.5 C 8.80478,12.3972 9.47144,14.7305 9.5,17.5C 9.47144,20.2695 8.80478,22.6028 7.5,24.5C 7.5,19.8333 7.5,15.1667 7.5,10.5 Z M 14.5,10.5 C 15.8048,12.3972 16.4714,14.7305 16.5,17.5C 16.4714,20.2695 15.8048,22.6028 14.5,24.5C 14.5,19.8333 14.5,15.1667 14.5,10.5 Z M 21.5,10.5 C 22.8048,12.3972 23.4714,14.7305 23.5,17.5C 23.4714,20.2695 22.8048,22.6028 21.5,24.5C 21.5,19.8333 21.5,15.1667 21.5,10.5 Z"/></g>
<g><path style="opacity:1" fill="#1abc9b" d="M 7.5,10.5 C 7.5,15.1667 7.5,19.8333 7.5,24.5C 6.19522,22.6028 5.52856,20.2695 5.5,17.5C 5.52856,14.7305 6.19522,12.3972 7.5,10.5 Z"/></g>
<g><path style="opacity:0.671" fill="#19bb9c" d="M 14.5,10.5 C 14.5,15.1667 14.5,19.8333 14.5,24.5C 13.1952,22.6028 12.5286,20.2695 12.5,17.5C 12.5286,14.7305 13.1952,12.3972 14.5,10.5 Z"/></g>
<g><path style="opacity:0.667" fill="#1abc9c" d="M 21.5,10.5 C 21.5,15.1667 21.5,19.8333 21.5,24.5C 20.1952,22.6028 19.5286,20.2695 19.5,17.5C 19.5286,14.7305 20.1952,12.3972 21.5,10.5 Z"/></g>
<g><path style="opacity:1" fill="#1abc9b" d="M 27.5,10.5 C 27.5,15.1667 27.5,19.8333 27.5,24.5C 26.1952,22.6028 25.5286,20.2695 25.5,17.5C 25.5286,14.7305 26.1952,12.3972 27.5,10.5 Z"/></g>
<g><path style="opacity:0.98" fill="#19bb9c" d="M 2.5,25.5 C 11.1667,26.8333 19.8333,26.8333 28.5,25.5C 29.609,25.5569 30.609,25.8902 31.5,26.5C 31.5,27.1667 31.5,27.8333 31.5,28.5C 20.8333,28.5 10.1667,28.5 -0.5,28.5C -0.5,27.8333 -0.5,27.1667 -0.5,26.5C 0.391047,25.8902 1.39105,25.5569 2.5,25.5 Z"/></g>
<g><path style="opacity:0.89" fill="#18a68a" d="M -0.5,28.5 C 10.1667,28.5 20.8333,28.5 31.5,28.5C 31.5,29.1667 31.5,29.8333 31.5,30.5C 20.8333,30.5 10.1667,30.5 -0.5,30.5C -0.5,29.8333 -0.5,29.1667 -0.5,28.5 Z"/></g>
</svg>
