<?xml version="1.0" encoding="UTF-8"?>
<!DOCTYPE svg PUBLIC "-//W3C//DTD SVG 1.1//EN" "http://www.w3.org/Graphics/SVG/1.1/DTD/svg11.dtd">
<svg xmlns="http://www.w3.org/2000/svg" version="1.1" width="512px" height="512px" style="shape-rendering:geometricPrecision; text-rendering:geometricPrecision; image-rendering:optimizeQuality; fill-rule:evenodd; clip-rule:evenodd" xmlns:xlink="http://www.w3.org/1999/xlink">
<g><path style="opacity:0.927" fill="#020201" d="M 384.5,30.5 C 403.312,29.8116 412.146,38.8116 411,57.5C 410.275,59.9494 409.275,62.2827 408,64.5C 400.985,71.3477 394.152,78.3477 387.5,85.5C 396.697,92.8009 398.864,101.801 394,112.5C 386.954,120.826 378.454,122.659 368.5,118C 364.667,114.167 360.833,110.333 357,106.5C 323.167,140.333 289.333,174.167 255.5,208C 248.98,211.526 242.647,211.193 236.5,207C 230.92,200.454 230.087,193.287 234,185.5C 267.333,152.167 300.667,118.833 334,85.5C 334.667,84.8333 334.667,84.1667 334,83.5C 329.251,79.4221 325.251,74.7554 322,69.5C 318.935,55.3102 324.601,46.9769 339,44.5C 342.716,45.0423 346.216,46.2089 349.5,48C 351.683,50.3504 354.016,52.517 356.5,54.5C 363.652,47.848 370.652,41.0147 377.5,34C 379.925,32.7874 382.259,31.6207 384.5,30.5 Z"/></g>
<g><path style="opacity:1" fill="#fbfbfb" d="M 385.5,38.5 C 395.826,37.4758 401.826,41.9758 403.5,52C 403.274,55.0117 402.441,57.845 401,60.5C 394.624,67.2112 387.957,73.5446 381,79.5C 374.21,73.7114 367.71,67.5447 361.5,61C 369.094,52.9005 377.094,45.4005 385.5,38.5 Z"/></g>
<g><path style="opacity:1" fill="#fbfaf9" d="M 353.5,63.5 C 342.678,60.9836 337.678,65.3169 338.5,76.5C 334.451,73.616 331.284,69.9494 329,65.5C 328.712,55.4681 333.545,51.6347 343.5,54C 347.334,56.6682 350.667,59.8348 353.5,63.5 Z"/></g>
<g><path style="opacity:1" fill="#fee450" d="M 353.5,63.5 C 364.798,74.2979 375.965,85.2979 387,96.5C 390.548,105.403 387.715,111.07 378.5,113.5C 376.803,113.101 375.137,112.601 373.5,112C 361.631,100.298 349.965,88.4651 338.5,76.5C 337.678,65.3169 342.678,60.9836 353.5,63.5 Z"/></g>
<g><path style="opacity:1" fill="#f9f9f9" d="M 339.5,90.5 C 343.905,93.3958 347.905,96.8958 351.5,101C 318.167,134.333 284.833,167.667 251.5,201C 245.031,203.766 241.031,201.766 239.5,195C 239.542,193.033 240.042,191.199 241,189.5C 274.035,156.632 306.868,123.632 339.5,90.5 Z"/></g>
<g><path style="opacity:0.943" fill="#040404" d="M 339.5,312.5 C 339.414,313.496 339.748,314.329 340.5,315C 345.102,316.48 349.769,317.646 354.5,318.5C 354.842,319.338 355.508,319.672 356.5,319.5C 358.47,320.162 360.47,320.828 362.5,321.5C 364.968,320.197 367.301,318.697 369.5,317C 370.833,316.333 372.167,316.333 373.5,317C 375.167,320 376.833,323 378.5,326C 387.32,329.216 395.987,332.716 404.5,336.5C 406.636,350.5 405.303,364.166 400.5,377.5C 392.125,396.208 378.458,409.541 359.5,417.5C 353.031,413.53 346.698,409.363 340.5,405C 338.863,404.399 337.197,403.899 335.5,403.5C 333.199,404.396 330.866,404.562 328.5,404C 326.68,400.864 324.68,397.864 322.5,395C 318.443,392.134 314.11,390.134 309.5,389C 319.631,400.8 330.131,412.3 341,423.5C 345.477,444.431 339.977,462.264 324.5,477C 305.422,488.131 287.422,486.798 270.5,473C 232.669,434.971 200.669,392.637 174.5,346C 169.666,345.166 164.833,344.333 160,343.5C 155.919,344.247 152.252,345.913 149,348.5C 147.775,348.138 146.609,347.638 145.5,347C 143.874,344.372 141.874,342.039 139.5,340C 131.298,339.019 123.132,337.852 115,336.5C 111.554,337.557 108.221,338.89 105,340.5C 101.843,338.683 98.6767,336.85 95.5,335C 77.225,332.915 58.8917,331.582 40.5,331C 35.6531,328.814 35.3198,326.148 39.5,323C 55.8602,316.743 72.5269,311.409 89.5,307C 93.2312,300.627 98.0646,299.794 104,304.5C 109.72,302.962 115.553,301.795 121.5,301C 123.71,299.285 125.376,297.119 126.5,294.5C 128.421,293.359 130.421,293.192 132.5,294C 137.435,299.063 143.101,299.896 149.5,296.5C 135.068,258.626 116.235,223.293 93,190.5C 81.1827,175.35 68.016,161.517 53.5,149C 49.3333,146.167 45.1667,143.333 41,140.5C 39.8193,136.83 40.986,134.497 44.5,133.5C 80.143,148.976 112.476,169.476 141.5,195C 144.711,196.153 148.044,196.82 151.5,197C 153.941,200.011 155.107,203.511 155,207.5C 167.106,218.601 178.106,230.601 188,243.5C 192.272,245.375 196.605,247.042 201,248.5C 201.333,252.5 201.667,256.5 202,260.5C 207.358,267.024 212.525,273.69 217.5,280.5C 221.891,281.989 226.391,282.989 231,283.5C 231.841,287.977 233.008,292.311 234.5,296.5C 251.784,298.139 268.951,300.473 286,303.5C 288.529,300.968 291.529,299.302 295,298.5C 295.833,298.667 296.667,298.833 297.5,299C 299.155,301.653 301.155,303.986 303.5,306C 310.032,307.373 316.532,308.873 323,310.5C 326.16,308.999 329.327,307.666 332.5,306.5C 333.5,306.833 334.5,307.167 335.5,307.5C 336.612,309.419 337.946,311.086 339.5,312.5 Z"/></g>
<g><path style="opacity:0.972" fill="#060605" d="M 405.5,377.5 C 406.249,376.469 406.915,375.302 407.5,374C 422.167,373.667 436.833,373.333 451.5,373C 461,371.5 466.5,366 468,356.5C 468.5,343.838 468.667,331.171 468.5,318.5C 441.165,318.667 413.831,318.5 386.5,318C 386,317.5 385.5,317 385,316.5C 384.333,286.167 384.333,255.833 385,225.5C 385.5,225 386,224.5 386.5,224C 413.831,223.5 441.165,223.333 468.5,223.5C 468.667,212.828 468.5,202.161 468,191.5C 467.768,190.263 467.268,189.263 466.5,188.5C 464.318,182.819 460.318,178.986 454.5,177C 422.167,176.333 389.833,176.333 357.5,177C 351.333,179.167 347.167,183.333 345,189.5C 344.667,226.833 344.333,264.167 344,301.5C 343.411,303.863 341.911,304.863 339.5,304.5C 338.504,304.586 337.671,304.252 337,303.5C 336.333,265.167 336.333,226.833 337,188.5C 342.465,173.342 353.298,166.675 369.5,168.5C 369.18,157.585 369.513,146.752 370.5,136C 395.167,135.333 419.833,135.333 444.5,136C 445,136.5 445.5,137 446,137.5C 446.5,147.828 446.666,158.161 446.5,168.5C 461.134,167.981 470.634,174.648 475,188.5C 475.667,245.833 475.667,303.167 475,360.5C 472.491,371.009 465.991,377.509 455.5,380C 439.5,380.667 423.5,380.667 407.5,380C 406.619,379.292 405.953,378.458 405.5,377.5 Z"/></g>
<g><path style="opacity:1" fill="#fdfdfd" d="M 376.5,143.5 C 397.167,143.5 417.833,143.5 438.5,143.5C 438.5,151.833 438.5,160.167 438.5,168.5C 417.833,168.5 397.167,168.5 376.5,168.5C 376.5,160.167 376.5,151.833 376.5,143.5 Z"/></g>
<g><path style="opacity:1" fill="#f7f9f7" d="M 142.5,242.5 C 146.441,250.716 150.108,259.049 153.5,267.5C 152.415,272.17 154.082,275.17 158.5,276.5C 164.436,292.368 171.436,307.701 179.5,322.5C 179.025,325.313 180.025,327.313 182.5,328.5C 188.411,340.663 195.078,352.33 202.5,363.5C 202.782,364.778 203.449,365.778 204.5,366.5C 221.479,394.816 241.145,421.149 263.5,445.5C 263.664,448.187 263.497,450.854 263,453.5C 220.83,408.87 186.83,358.537 161,302.5C 145.425,261.678 125.425,223.345 101,187.5C 93.916,177.745 86.0826,168.578 77.5,160C 81.9714,161.245 85.9714,163.579 89.5,167C 108.572,185.643 122.739,207.477 132,232.5C 134.748,234.458 137.582,236.291 140.5,238C 141.582,239.33 142.249,240.83 142.5,242.5 Z"/></g>
<g><path style="opacity:0.997" fill="#fefefe" d="M 466.5,188.5 C 464.914,187.852 463.247,187.352 461.5,187C 431.167,186.333 400.833,186.333 370.5,187C 362.576,189.423 357.576,194.59 355.5,202.5C 354.501,240.996 354.168,279.663 354.5,318.5C 349.769,317.646 345.102,316.48 340.5,315C 339.748,314.329 339.414,313.496 339.5,312.5C 339.5,309.833 339.5,307.167 339.5,304.5C 341.911,304.863 343.411,303.863 344,301.5C 344.333,264.167 344.667,226.833 345,189.5C 347.167,183.333 351.333,179.167 357.5,177C 389.833,176.333 422.167,176.333 454.5,177C 460.318,178.986 464.318,182.819 466.5,188.5 Z"/></g>
<g><path style="opacity:1" fill="#f8faf9" d="M 134.5,199.5 C 138.99,207.444 142.824,215.777 146,224.5C 149.297,226.795 152.297,229.462 155,232.5C 159.333,239.833 163.667,247.167 168,254.5C 169.204,258.716 169.87,263.049 170,267.5C 173,269.833 176,272.167 179,274.5C 185.415,285.998 190.748,297.998 195,310.5C 195.176,313.882 195.676,317.215 196.5,320.5C 199.947,321.639 202.781,323.639 205,326.5C 209.253,333.337 213.253,340.337 217,347.5C 217.175,351.211 217.675,354.878 218.5,358.5C 222.602,359.965 226.102,362.299 229,365.5C 242.517,387.365 258.684,407.198 277.5,425C 289.134,432.551 301.8,435.051 315.5,432.5C 302.908,436.641 290.241,436.474 277.5,432C 275.004,430.92 272.67,429.586 270.5,428C 251.413,409.916 234.913,389.75 221,367.5C 217.639,364.655 213.972,362.321 210,360.5C 209.667,356.833 209.333,353.167 209,349.5C 204.667,342.167 200.333,334.833 196,327.5C 193.636,325.637 191.136,323.971 188.5,322.5C 185.553,306.929 180.053,292.262 172,278.5C 169.273,275.269 166.106,272.603 162.5,270.5C 162.275,264.458 160.775,258.792 158,253.5C 154.081,247.33 150.414,240.997 147,234.5C 144.362,231.683 141.362,229.35 138,227.5C 132.242,211.98 124.409,197.647 114.5,184.5C 114.667,184.167 114.833,183.833 115,183.5C 121.439,188.961 127.939,194.294 134.5,199.5 Z"/></g>
<g><path style="opacity:1" fill="#d7fdaf" d="M 466.5,188.5 C 467.268,189.263 467.768,190.263 468,191.5C 468.5,202.161 468.667,212.828 468.5,223.5C 441.165,223.333 413.831,223.5 386.5,224C 386,224.5 385.5,225 385,225.5C 384.333,255.833 384.333,286.167 385,316.5C 385.5,317 386,317.5 386.5,318C 413.831,318.5 441.165,318.667 468.5,318.5C 468.667,331.171 468.5,343.838 468,356.5C 466.5,366 461,371.5 451.5,373C 436.833,373.333 422.167,373.667 407.5,374C 406.915,375.302 406.249,376.469 405.5,377.5C 403.833,377.5 402.167,377.5 400.5,377.5C 405.303,364.166 406.636,350.5 404.5,336.5C 395.987,332.716 387.32,329.216 378.5,326C 376.833,323 375.167,320 373.5,317C 372.167,316.333 370.833,316.333 369.5,317C 367.301,318.697 364.968,320.197 362.5,321.5C 360.47,320.828 358.47,320.162 356.5,319.5C 355.506,280.573 355.173,241.573 355.5,202.5C 357.576,194.59 362.576,189.423 370.5,187C 400.833,186.333 431.167,186.333 461.5,187C 463.247,187.352 464.914,187.852 466.5,188.5 Z"/></g>
<g><path style="opacity:1" fill="#4ee780" d="M 134.5,199.5 C 137.967,202.442 141.967,204.442 146.5,205.5C 147.18,207.889 148.014,210.222 149,212.5C 161.937,224.432 173.771,237.266 184.5,251C 187.312,252.549 190.312,253.382 193.5,253.5C 193.384,257.702 194.217,261.702 196,265.5C 201.576,272.32 206.909,279.32 212,286.5C 216.096,289.149 220.596,290.483 225.5,290.5C 224.965,296.533 226.132,302.199 229,307.5C 261.312,346.932 295.645,386.266 332,425.5C 332.456,426.744 331.956,427.577 330.5,428C 325.696,430.213 320.696,431.713 315.5,432.5C 301.8,435.051 289.134,432.551 277.5,425C 258.684,407.198 242.517,387.365 229,365.5C 226.102,362.299 222.602,359.965 218.5,358.5C 217.675,354.878 217.175,351.211 217,347.5C 213.253,340.337 209.253,333.337 205,326.5C 202.781,323.639 199.947,321.639 196.5,320.5C 195.676,317.215 195.176,313.882 195,310.5C 190.748,297.998 185.415,285.998 179,274.5C 176,272.167 173,269.833 170,267.5C 169.87,263.049 169.204,258.716 168,254.5C 163.667,247.167 159.333,239.833 155,232.5C 152.297,229.462 149.297,226.795 146,224.5C 142.824,215.777 138.99,207.444 134.5,199.5 Z"/></g>
<g><path style="opacity:1" fill="#e8fed1" d="M 355.5,202.5 C 355.173,241.573 355.506,280.573 356.5,319.5C 355.508,319.672 354.842,319.338 354.5,318.5C 354.168,279.663 354.501,240.996 355.5,202.5 Z"/></g>
<g><path style="opacity:0.901" fill="#020202" d="M 236.5,215.5 C 238.582,215.472 240.416,216.139 242,217.5C 247.889,224.397 252.556,232.063 256,240.5C 258.231,254.713 252.231,262.713 238,264.5C 222.982,261.833 217.316,253.167 221,238.5C 225.199,230.077 230.366,222.41 236.5,215.5 Z"/></g>
<g><path style="opacity:1" fill="#f5f6f5" d="M 242.5,232.5 C 236.826,238.163 234.992,244.829 237,252.5C 238.129,254.141 239.629,255.141 241.5,255.5C 233.379,257.416 228.713,254.082 227.5,245.5C 229.372,238.592 232.705,232.425 237.5,227C 239.897,227.906 241.563,229.74 242.5,232.5 Z"/></g>
<g><path style="opacity:0.8" fill="#a2a2a2" d="M 391.5,231.5 C 416.995,230.502 442.661,230.169 468.5,230.5C 468.5,234.167 468.5,237.833 468.5,241.5C 468.167,241.5 467.833,241.5 467.5,241.5C 467.5,238.167 467.5,234.833 467.5,231.5C 442.167,231.5 416.833,231.5 391.5,231.5 Z"/></g>
<g><path style="opacity:1" fill="#fffefe" d="M 391.5,231.5 C 416.833,231.5 442.167,231.5 467.5,231.5C 467.5,234.833 467.5,238.167 467.5,241.5C 449.497,241.333 431.497,241.5 413.5,242C 408.667,244.167 405.167,247.667 403,252.5C 402.5,271.83 402.333,291.164 402.5,310.5C 398.833,310.5 395.167,310.5 391.5,310.5C 391.5,284.167 391.5,257.833 391.5,231.5 Z"/></g>
<g><path style="opacity:1" fill="#d4f9ae" d="M 242.5,232.5 C 248.889,238.146 250.389,244.813 247,252.5C 245.512,254.16 243.679,255.16 241.5,255.5C 239.629,255.141 238.129,254.141 237,252.5C 234.992,244.829 236.826,238.163 242.5,232.5 Z"/></g>
<g><path style="opacity:1" fill="#ffe54f" d="M 467.5,241.5 C 467.5,264.5 467.5,287.5 467.5,310.5C 445.833,310.5 424.167,310.5 402.5,310.5C 402.333,291.164 402.5,271.83 403,252.5C 405.167,247.667 408.667,244.167 413.5,242C 431.497,241.5 449.497,241.333 467.5,241.5 Z"/></g>
<g><path style="opacity:1" fill="#5ddc85" d="M 142.5,242.5 C 146.81,248.437 150.643,254.77 154,261.5C 154.789,263.712 154.622,265.712 153.5,267.5C 150.108,259.049 146.441,250.716 142.5,242.5 Z"/></g>
<g><path style="opacity:1" fill="#54e482" d="M 158.5,276.5 C 161.414,277.906 163.914,279.906 166,282.5C 171.157,291.812 175.49,301.478 179,311.5C 179.499,315.152 179.665,318.818 179.5,322.5C 171.436,307.701 164.436,292.368 158.5,276.5 Z"/></g>
<g><path style="opacity:1" fill="#f7f8f8" d="M 156.5,311.5 C 151.486,312.02 146.486,312.687 141.5,313.5C 139.5,312.833 137.5,312.167 135.5,311.5C 133.394,312.43 131.394,313.596 129.5,315C 122.306,316.005 115.139,317.171 108,318.5C 103.865,316.656 100.365,317.489 97.5,321C 92.2441,322.058 87.2441,323.558 82.5,325.5C 75.1794,324.917 67.846,324.417 60.5,324C 70.5961,320.226 80.9294,317.226 91.5,315C 94.1024,314.117 96.2691,312.617 98,310.5C 99.7073,311.459 101.541,312.125 103.5,312.5C 111.081,310.57 118.748,309.07 126.5,308C 128,306.5 129.5,305 131,303.5C 132.939,305.443 135.272,306.443 138,306.5C 143.479,305.514 148.979,305.348 154.5,306C 155.464,307.725 156.131,309.559 156.5,311.5 Z"/></g>
<g><path style="opacity:1" fill="#f8f9f8" d="M 245.5,305.5 C 246.531,306.249 247.698,306.915 249,307.5C 253.456,313.625 258.289,319.458 263.5,325C 267.421,325.203 271.255,325.703 275,326.5C 275.109,331.614 275.776,336.614 277,341.5C 284.618,349.906 292.118,358.406 299.5,367C 311.075,371.787 322.408,377.12 333.5,383C 335.5,385 337.5,387 339.5,389C 345.695,390.434 351.362,392.934 356.5,396.5C 355.863,399.456 355.363,402.456 355,405.5C 348.703,399.261 341.203,396.261 332.5,396.5C 331.874,393.685 330.54,391.185 328.5,389C 316.987,383.077 305.32,377.41 293.5,372C 286.118,363.406 278.618,354.906 271,346.5C 270.667,341.833 270.333,337.167 270,332.5C 269.5,332 269,331.5 268.5,331C 264.833,330.667 261.167,330.333 257.5,330C 250.833,322 244.167,314 237.5,306C 240.146,305.503 242.813,305.336 245.5,305.5 Z"/></g>
<g><path style="opacity:1" fill="#28b965" d="M 245.5,305.5 C 258.662,307.124 271.829,308.791 285,310.5C 288.385,310.64 291.385,309.64 294,307.5C 295.167,310 297,311.833 299.5,313C 307.481,314.896 315.481,316.73 323.5,318.5C 326.211,317.986 328.711,316.986 331,315.5C 332.563,318.728 335.063,320.895 338.5,322C 346.5,324.167 354.5,326.333 362.5,328.5C 364.944,327.778 367.278,326.778 369.5,325.5C 370.833,327.5 372.167,329.5 373.5,331.5C 379.873,333.902 386.206,336.402 392.5,339C 371.278,352.254 359.278,371.421 356.5,396.5C 351.362,392.934 345.695,390.434 339.5,389C 337.5,387 335.5,385 333.5,383C 322.408,377.12 311.075,371.787 299.5,367C 292.118,358.406 284.618,349.906 277,341.5C 275.776,336.614 275.109,331.614 275,326.5C 271.255,325.703 267.421,325.203 263.5,325C 258.289,319.458 253.456,313.625 249,307.5C 247.698,306.915 246.531,306.249 245.5,305.5 Z"/></g>
<g><path style="opacity:0.898" fill="#cdbd5a" d="M 467.5,241.5 C 467.833,241.5 468.167,241.5 468.5,241.5C 468.5,264.833 468.5,288.167 468.5,311.5C 446.327,311.831 424.327,311.497 402.5,310.5C 424.167,310.5 445.833,310.5 467.5,310.5C 467.5,287.5 467.5,264.5 467.5,241.5 Z"/></g>
<g><path style="opacity:1" fill="#2cb967" d="M 156.5,311.5 C 161.519,319.697 166.186,328.197 170.5,337C 166.361,336.785 162.194,336.285 158,335.5C 154.929,335.784 152.095,336.784 149.5,338.5C 147.31,336.476 144.977,334.643 142.5,333C 133.368,331.553 124.202,330.386 115,329.5C 111.813,329.394 108.813,330.061 106,331.5C 103.61,330.722 101.443,329.555 99.5,328C 93.7121,327.039 88.0454,326.205 82.5,325.5C 87.2441,323.558 92.2441,322.058 97.5,321C 100.365,317.489 103.865,316.656 108,318.5C 115.139,317.171 122.306,316.005 129.5,315C 131.394,313.596 133.394,312.43 135.5,311.5C 137.5,312.167 139.5,312.833 141.5,313.5C 146.486,312.687 151.486,312.02 156.5,311.5 Z"/></g>
<g><path style="opacity:1" fill="#56e684" d="M 182.5,328.5 C 185.854,329.261 188.687,330.928 191,333.5C 194.667,339.5 198.333,345.5 202,351.5C 202.499,355.486 202.666,359.486 202.5,363.5C 195.078,352.33 188.411,340.663 182.5,328.5 Z"/></g>
<g><path style="opacity:1" fill="#fbfbfa" d="M 398.5,353.5 C 383.033,365.105 375.033,380.438 374.5,399.5C 371.177,401.97 367.677,404.304 364,406.5C 362.917,378.986 374.084,358.319 397.5,344.5C 398.484,347.428 398.817,350.428 398.5,353.5 Z"/></g>
<g><path style="opacity:1" fill="#d6fbb0" d="M 398.5,353.5 C 397.337,372.496 389.337,387.829 374.5,399.5C 375.033,380.438 383.033,365.105 398.5,353.5 Z"/></g>
<g><path style="opacity:1" fill="#52e582" d="M 204.5,366.5 C 208.09,367.628 211.423,369.295 214.5,371.5C 228.271,393.107 244.437,412.774 263,430.5C 263.499,435.489 263.666,440.489 263.5,445.5C 241.145,421.149 221.479,394.816 204.5,366.5 Z"/></g>
<g><path style="opacity:1" fill="#f9faf8" d="M 334.5,442.5 C 319.674,448.102 304.507,449.436 289,446.5C 280.375,447.841 277.375,452.841 280,461.5C 281.272,468.429 285.105,473.096 291.5,475.5C 280.064,473.227 273.564,466.227 272,454.5C 270.53,448.849 270.364,443.182 271.5,437.5C 285.405,443.798 299.738,444.964 314.5,441C 321.009,439.33 327.342,437.164 333.5,434.5C 334.48,437.086 334.813,439.753 334.5,442.5 Z"/></g>
<g><path style="opacity:1" fill="#d7fdb0" d="M 334.5,442.5 C 330.68,467.692 316.346,478.692 291.5,475.5C 285.105,473.096 281.272,468.429 280,461.5C 277.375,452.841 280.375,447.841 289,446.5C 304.507,449.436 319.674,448.102 334.5,442.5 Z"/></g>
</svg>
