<?xml version="1.0" encoding="UTF-8"?>
<!DOCTYPE svg PUBLIC "-//W3C//DTD SVG 1.1//EN" "http://www.w3.org/Graphics/SVG/1.1/DTD/svg11.dtd">
<svg xmlns="http://www.w3.org/2000/svg" version="1.1" width="512px" height="512px" style="shape-rendering:geometricPrecision; text-rendering:geometricPrecision; image-rendering:optimizeQuality; fill-rule:evenodd; clip-rule:evenodd" xmlns:xlink="http://www.w3.org/1999/xlink">
<g><path style="opacity:0.924" fill="#030403" d="M 336.5,316.5 C 333.475,315.967 332.142,314.133 332.5,311C 343.171,252.15 357.837,194.317 376.5,137.5C 381.675,122.455 387.509,107.788 394,93.5C 385.609,104.892 377.609,116.559 370,128.5C 366.914,132.257 363.248,135.257 359,137.5C 358.606,143.077 357.272,148.41 355,153.5C 351.701,156.978 348.034,159.978 344,162.5C 343.279,168.55 342.279,174.55 341,180.5C 337.686,184.981 333.852,188.981 329.5,192.5C 328.793,198.194 327.96,203.861 327,209.5C 324.318,212.35 321.484,215.016 318.5,217.5C 319.909,221.894 319.742,226.228 318,230.5C 314.992,234.674 311.492,238.341 307.5,241.5C 308.606,245.777 308.772,250.11 308,254.5C 303.778,266.61 299.278,278.61 294.5,290.5C 293.675,291.386 292.675,291.719 291.5,291.5C 289.11,291.315 288.11,289.982 288.5,287.5C 287.625,213.756 292.625,140.422 303.5,67.5C 305.163,58.863 306.329,50.1963 307,41.5C 301.245,49.3361 296.245,57.6694 292,66.5C 290.333,68.1667 288.667,69.8333 287,71.5C 286.667,76.1667 286.333,80.8333 286,85.5C 284.333,88.5 282,90.8333 279,92.5C 279.186,96.4841 279.186,100.484 279,104.5C 277.71,106.792 276.043,108.792 274,110.5C 274.245,114.813 274.245,119.147 274,123.5C 271.287,127.092 268.453,130.592 265.5,134C 267.084,137.99 268.084,142.156 268.5,146.5C 266.488,151.851 264.488,157.185 262.5,162.5C 262.988,166.319 263.321,170.153 263.5,174C 261.247,195.46 259.58,216.96 258.5,238.5C 265.654,257.48 272.82,276.48 280,295.5C 280.815,298.198 280.315,300.532 278.5,302.5C 276.61,302.703 275.11,302.037 274,300.5C 263.173,270.684 251.173,241.351 238,212.5C 238.515,204.984 235.848,198.984 230,194.5C 226.043,187.75 223.71,180.417 223,172.5C 213.541,167.036 209.041,158.703 209.5,147.5C 206.528,145.694 203.695,143.694 201,141.5C 198.398,136.094 196.564,130.427 195.5,124.5C 191.542,121.043 187.708,117.377 184,113.5C 182.046,109.019 180.713,104.352 180,99.5C 174.35,96.0133 169.517,91.68 165.5,86.5C 162.269,81.0525 158.769,75.7192 155,70.5C 154.346,69.3044 153.846,69.3044 153.5,70.5C 168.689,103.734 180.689,138.068 189.5,173.5C 186.648,176.279 184.148,175.945 182,172.5C 168.89,125.284 151.057,79.951 128.5,36.5C 131.715,31.2809 135.215,31.2809 139,36.5C 151.386,52.5523 163.386,68.8857 175,85.5C 179,88.8333 183,92.1667 187,95.5C 187.713,100.352 189.046,105.019 191,109.5C 194.69,112.691 198.523,115.691 202.5,118.5C 203.346,123.886 204.513,129.22 206,134.5C 208.871,138.016 212.371,140.683 216.5,142.5C 217.805,148.132 218.972,153.799 220,159.5C 223.299,162.978 226.966,165.978 231,168.5C 231.353,174.616 232.353,180.616 234,186.5C 236.992,190.492 240.326,194.158 244,197.5C 244.309,206.403 246.642,214.736 251,222.5C 254.074,200.252 255.407,177.918 255,155.5C 257.491,152.681 259.324,149.514 260.5,146C 259.5,141.667 258.5,137.333 257.5,133C 259.12,128.364 261.954,124.531 266,121.5C 265.458,116.863 265.125,112.196 265,107.5C 268.06,105.942 270.226,103.609 271.5,100.5C 270.02,96.5936 269.52,92.5936 270,88.5C 272.762,87.0194 275.429,85.3527 278,83.5C 278.333,78.5 278.667,73.5 279,68.5C 281.63,64.8683 284.63,61.535 288,58.5C 292.792,46.3758 299.958,35.8758 309.5,27C 311.955,25.3695 314.455,25.2028 317,26.5C 310.738,70.34 305.405,114.34 301,158.5C 298.521,187.616 297.021,216.782 296.5,246C 296.36,250.674 296.86,255.174 298,259.5C 299.453,256.142 300.287,252.642 300.5,249C 299.708,244.843 299.542,240.677 300,236.5C 303.966,233.536 307.633,230.203 311,226.5C 310.944,222.024 310.277,217.691 309,213.5C 309.374,212.584 309.874,211.75 310.5,211C 313.912,209.545 317.079,207.712 320,205.5C 320.864,199.857 321.531,194.19 322,188.5C 326.667,185.167 330.667,181.167 334,176.5C 334.889,170.153 335.722,163.819 336.5,157.5C 340.421,154.957 344.254,152.29 348,149.5C 349.793,143.959 351.126,138.292 352,132.5C 356.021,130.323 359.688,127.656 363,124.5C 377.088,101.16 393.922,79.9931 413.5,61C 418.829,58.9253 420.995,60.7587 420,66.5C 401.447,94.6128 387.447,124.946 378,157.5C 362.823,208.876 350.156,260.876 340,313.5C 339.578,315.426 338.411,316.426 336.5,316.5 Z"/></g>
<g><path style="opacity:1" fill="#f8faf9" d="M 303.5,67.5 C 300.197,71.6512 297.03,75.9845 294,80.5C 293.667,84.5 293.333,88.5 293,92.5C 291.032,95.8131 289.032,99.1464 287,102.5C 287.411,108.518 285.745,113.852 282,118.5C 281.667,122.5 281.333,126.5 281,130.5C 279,133.833 277,137.167 275,140.5C 274.927,146.171 274.927,151.838 275,157.5C 272.81,161.465 270.977,165.465 269.5,169.5C 270.033,174.151 270.366,178.818 270.5,183.5C 267.761,205.084 266.594,226.751 267,248.5C 273.269,265.141 279.435,281.807 285.5,298.5C 283.167,300.167 281.167,302.167 279.5,304.5C 278.662,304.158 278.328,303.492 278.5,302.5C 280.315,300.532 280.815,298.198 280,295.5C 272.82,276.48 265.654,257.48 258.5,238.5C 259.58,216.96 261.247,195.46 263.5,174C 263.321,170.153 262.988,166.319 262.5,162.5C 264.488,157.185 266.488,151.851 268.5,146.5C 268.084,142.156 267.084,137.99 265.5,134C 268.453,130.592 271.287,127.092 274,123.5C 274.245,119.147 274.245,114.813 274,110.5C 276.043,108.792 277.71,106.792 279,104.5C 279.186,100.484 279.186,96.4841 279,92.5C 282,90.8333 284.333,88.5 286,85.5C 286.333,80.8333 286.667,76.1667 287,71.5C 288.667,69.8333 290.333,68.1667 292,66.5C 296.245,57.6694 301.245,49.3361 307,41.5C 306.329,50.1963 305.163,58.863 303.5,67.5 Z"/></g>
<g><path style="opacity:1" fill="#2ab966" d="M 303.5,67.5 C 292.625,140.422 287.625,213.756 288.5,287.5C 288.11,289.982 289.11,291.315 291.5,291.5C 291.433,292.959 291.766,294.292 292.5,295.5C 290.046,296.227 287.713,297.227 285.5,298.5C 279.435,281.807 273.269,265.141 267,248.5C 266.594,226.751 267.761,205.084 270.5,183.5C 270.366,178.818 270.033,174.151 269.5,169.5C 270.977,165.465 272.81,161.465 275,157.5C 274.927,151.838 274.927,146.171 275,140.5C 277,137.167 279,133.833 281,130.5C 281.333,126.5 281.667,122.5 282,118.5C 285.745,113.852 287.411,108.518 287,102.5C 289.032,99.1464 291.032,95.8131 293,92.5C 293.333,88.5 293.667,84.5 294,80.5C 297.03,75.9845 300.197,71.6512 303.5,67.5 Z"/></g>
<g><path style="opacity:0.989" fill="#f2f6f4" d="M 165.5,86.5 C 177.953,116.524 188.619,147.19 197.5,178.5C 195.05,178.702 192.717,178.369 190.5,177.5C 190.567,176.041 190.234,174.708 189.5,173.5C 180.689,138.068 168.689,103.734 153.5,70.5C 153.846,69.3044 154.346,69.3044 155,70.5C 158.769,75.7192 162.269,81.0525 165.5,86.5 Z"/></g>
<g><path style="opacity:1" fill="#27b865" d="M 165.5,86.5 C 169.517,91.68 174.35,96.0133 180,99.5C 180.713,104.352 182.046,109.019 184,113.5C 187.708,117.377 191.542,121.043 195.5,124.5C 196.564,130.427 198.398,136.094 201,141.5C 203.695,143.694 206.528,145.694 209.5,147.5C 209.041,158.703 213.541,167.036 223,172.5C 223.71,180.417 226.043,187.75 230,194.5C 235.848,198.984 238.515,204.984 238,212.5C 251.173,241.351 263.173,270.684 274,300.5C 275.11,302.037 276.61,302.703 278.5,302.5C 278.328,303.492 278.662,304.158 279.5,304.5C 275.293,312.652 272.627,321.319 271.5,330.5C 263.654,322.91 254.321,318.577 243.5,317.5C 243.667,302.496 243.5,287.496 243,272.5C 237.466,261.131 228.299,256.464 215.5,258.5C 215.667,235.498 215.5,212.498 215,189.5C 211.888,181.563 206.055,177.896 197.5,178.5C 188.619,147.19 177.953,116.524 165.5,86.5 Z"/></g>
<g><path style="opacity:1" fill="#f8faf9" d="M 376.5,137.5 C 373.272,140.04 370.105,142.707 367,145.5C 365.644,150.922 363.977,156.255 362,161.5C 357.982,164.521 354.316,167.854 351,171.5C 351.428,183.644 346.761,193.311 337,200.5C 335.935,206.146 334.935,211.813 334,217.5C 327.526,221.783 324.859,227.783 326,235.5C 325.333,236.833 324.667,238.167 324,239.5C 316.211,245.179 313.211,252.846 315,262.5C 310.923,273.568 306.757,284.568 302.5,295.5C 299.098,294.54 295.765,294.54 292.5,295.5C 291.766,294.292 291.433,292.959 291.5,291.5C 292.675,291.719 293.675,291.386 294.5,290.5C 299.278,278.61 303.778,266.61 308,254.5C 308.772,250.11 308.606,245.777 307.5,241.5C 311.492,238.341 314.992,234.674 318,230.5C 319.742,226.228 319.909,221.894 318.5,217.5C 321.484,215.016 324.318,212.35 327,209.5C 327.96,203.861 328.793,198.194 329.5,192.5C 333.852,188.981 337.686,184.981 341,180.5C 342.279,174.55 343.279,168.55 344,162.5C 348.034,159.978 351.701,156.978 355,153.5C 357.272,148.41 358.606,143.077 359,137.5C 363.248,135.257 366.914,132.257 370,128.5C 377.609,116.559 385.609,104.892 394,93.5C 387.509,107.788 381.675,122.455 376.5,137.5 Z"/></g>
<g><path style="opacity:1" fill="#28b965" d="M 376.5,137.5 C 357.837,194.317 343.171,252.15 332.5,311C 332.142,314.133 333.475,315.967 336.5,316.5C 335.89,317.391 335.557,318.391 335.5,319.5C 330.876,323.112 326.21,326.779 321.5,330.5C 320.723,318.99 316.723,308.823 309.5,300C 307.102,298.476 304.769,296.976 302.5,295.5C 306.757,284.568 310.923,273.568 315,262.5C 313.211,252.846 316.211,245.179 324,239.5C 324.667,238.167 325.333,236.833 326,235.5C 324.859,227.783 327.526,221.783 334,217.5C 334.935,211.813 335.935,206.146 337,200.5C 346.761,193.311 351.428,183.644 351,171.5C 354.316,167.854 357.982,164.521 362,161.5C 363.977,156.255 365.644,150.922 367,145.5C 370.105,142.707 373.272,140.04 376.5,137.5 Z"/></g>
<g><path style="opacity:0.962" fill="#060606" d="M 190.5,177.5 C 192.717,178.369 195.05,178.702 197.5,178.5C 206.055,177.896 211.888,181.563 215,189.5C 215.5,212.498 215.667,235.498 215.5,258.5C 228.299,256.464 237.466,261.131 243,272.5C 243.5,287.496 243.667,302.496 243.5,317.5C 254.321,318.577 263.654,322.91 271.5,330.5C 272.627,321.319 275.293,312.652 279.5,304.5C 281.167,302.167 283.167,300.167 285.5,298.5C 287.713,297.227 290.046,296.227 292.5,295.5C 295.765,294.54 299.098,294.54 302.5,295.5C 304.769,296.976 307.102,298.476 309.5,300C 316.723,308.823 320.723,318.99 321.5,330.5C 326.21,326.779 330.876,323.112 335.5,319.5C 338.843,318.776 342.176,317.943 345.5,317C 364.795,316.977 372.295,326.477 368,345.5C 365.218,352.9 361.051,359.4 355.5,365C 366.889,365.129 377.055,368.629 386,375.5C 394.35,387.339 392.85,397.839 381.5,407C 373.423,411.483 364.757,413.816 355.5,414C 366.271,423.982 370.438,436.148 368,450.5C 362.116,461.158 353.283,464.658 341.5,461C 333.648,458.491 326.815,454.325 321,448.5C 321.152,461.403 316.652,472.237 307.5,481C 296.232,486.916 286.732,484.75 279,474.5C 274.517,466.423 272.184,457.757 272,448.5C 264.678,455.98 255.844,460.647 245.5,462.5C 244.928,472.511 240.261,479.677 231.5,484C 210.202,485.132 188.868,485.632 167.5,485.5C 146.132,485.632 124.798,485.132 103.5,484C 96.9299,481.762 92.7633,477.262 91,470.5C 90.3333,404.5 90.3333,338.5 91,272.5C 93.5936,265.572 98.4269,261.072 105.5,259C 111.157,258.501 116.824,258.334 122.5,258.5C 122.333,235.831 122.5,213.164 123,190.5C 124.5,183.667 128.667,179.5 135.5,178C 153.83,177.5 172.164,177.333 190.5,177.5 Z"/></g>
<g><path style="opacity:1" fill="#fefefe" d="M 136.5,185.5 C 142.833,185.5 149.167,185.5 155.5,185.5C 155.094,193.917 155.594,202.251 157,210.5C 162.512,217.796 169.346,219.296 177.5,215C 179.378,213.457 180.878,211.624 182,209.5C 183.401,201.585 183.901,193.585 183.5,185.5C 189.842,185.334 196.175,185.5 202.5,186C 204.286,186.785 205.786,187.951 207,189.5C 207.5,205.83 207.667,222.163 207.5,238.5C 181.833,238.5 156.167,238.5 130.5,238.5C 130.333,222.497 130.5,206.497 131,190.5C 132.406,188.256 134.239,186.59 136.5,185.5 Z"/></g>
<g><path style="opacity:1" fill="#f4f4f4" d="M 162.5,185.5 C 166.833,185.5 171.167,185.5 175.5,185.5C 175.666,192.508 175.5,199.508 175,206.5C 170.626,211.915 166.626,211.582 163,205.5C 162.5,198.842 162.334,192.175 162.5,185.5 Z"/></g>
<g><path style="opacity:1" fill="#fffefd" d="M 207.5,253.5 C 185.831,253.333 164.164,253.5 142.5,254C 140.249,254.748 138.916,256.248 138.5,258.5C 135.833,258.5 133.167,258.5 130.5,258.5C 130.5,254.5 130.5,250.5 130.5,246.5C 156.167,246.5 181.833,246.5 207.5,246.5C 207.5,248.833 207.5,251.167 207.5,253.5 Z"/></g>
<g><path style="opacity:1" fill="#ffe54f" d="M 207.5,253.5 C 207.5,255.167 207.5,256.833 207.5,258.5C 184.5,258.5 161.5,258.5 138.5,258.5C 138.916,256.248 140.249,254.748 142.5,254C 164.164,253.5 185.831,253.333 207.5,253.5 Z"/></g>
<g><path style="opacity:1" fill="#fefefe" d="M 155.5,273.5 C 141.496,273.333 127.496,273.5 113.5,274C 110,275.5 107.5,278 106,281.5C 105.5,346.499 105.333,411.499 105.5,476.5C 102.155,475.32 99.9887,472.987 99,469.5C 98.3333,404.167 98.3333,338.833 99,273.5C 100.587,270.244 103.087,268.077 106.5,267C 122.83,266.5 139.163,266.333 155.5,266.5C 155.5,268.833 155.5,271.167 155.5,273.5 Z"/></g>
<g><path style="opacity:1" fill="#f6f6f6" d="M 162.5,266.5 C 166.833,266.5 171.167,266.5 175.5,266.5C 175.5,277.5 175.5,288.5 175.5,299.5C 171.167,299.5 166.833,299.5 162.5,299.5C 162.5,288.5 162.5,277.5 162.5,266.5 Z"/></g>
<g><path style="opacity:1" fill="#fcfcfb" d="M 235.5,274.5 C 222.909,273.354 210.242,273.188 197.5,274C 194.417,274.786 192.251,276.619 191,279.5C 190.667,290.167 190.333,300.833 190,311.5C 188.486,313.766 186.319,314.932 183.5,315C 182.02,316.299 181.354,317.966 181.5,320C 184.802,339.761 185.302,359.595 183,379.5C 176.403,411.604 174.903,443.937 178.5,476.5C 176.833,476.5 175.167,476.5 173.5,476.5C 169.723,456.696 168.556,436.696 170,416.5C 171.508,401.104 173.508,385.771 176,370.5C 178.648,349.268 177.481,328.268 172.5,307.5C 175.447,306.679 178.447,306.179 181.5,306C 182,305.5 182.5,305 183,304.5C 183.5,291.838 183.667,279.171 183.5,266.5C 198.504,266.333 213.504,266.5 228.5,267C 232.079,268.41 234.412,270.91 235.5,274.5 Z"/></g>
<g><path style="opacity:1" fill="#d7feaf" d="M 155.5,273.5 C 155.334,283.839 155.5,294.172 156,304.5C 158.826,306.34 161.993,307.006 165.5,306.5C 169.296,326.986 170.463,347.653 169,368.5C 165.094,390.176 162.594,412.009 161.5,434C 162.006,448.587 163.339,463.087 165.5,477.5C 145.424,477.821 125.424,477.487 105.5,476.5C 105.333,411.499 105.5,346.499 106,281.5C 107.5,278 110,275.5 113.5,274C 127.496,273.5 141.496,273.333 155.5,273.5 Z"/></g>
<g><path style="opacity:1" fill="#d7fdaf" d="M 235.5,274.5 C 236.661,288.994 236.828,303.661 236,318.5C 224.199,325.638 221.199,335.638 227,348.5C 229.725,354.786 233.558,360.286 238.5,365C 229.379,365.69 220.712,368.023 212.5,372C 202.25,378.974 199.75,388.141 205,399.5C 213.971,409.061 225.138,413.895 238.5,414C 228.56,423.037 224.06,434.203 225,447.5C 226.505,453.671 230.172,458.005 236,460.5C 237.527,468.28 234.694,473.78 227.5,477C 209.329,477.829 191.329,477.662 173.5,476.5C 175.167,476.5 176.833,476.5 178.5,476.5C 174.903,443.937 176.403,411.604 183,379.5C 185.302,359.595 184.802,339.761 181.5,320C 181.354,317.966 182.02,316.299 183.5,315C 186.319,314.932 188.486,313.766 190,311.5C 190.333,300.833 190.667,290.167 191,279.5C 192.251,276.619 194.417,274.786 197.5,274C 210.242,273.188 222.909,273.354 235.5,274.5 Z"/></g>
<g><path style="opacity:1" fill="#fcfcfc" d="M 292.5,302.5 C 300.196,301.432 305.696,304.432 309,311.5C 315.683,328.302 314.683,344.635 306,360.5C 305.275,361.059 304.442,361.392 303.5,361.5C 298.163,360.471 292.829,360.304 287.5,361C 277.532,343.753 277.032,326.253 286,308.5C 288.063,306.266 290.229,304.266 292.5,302.5 Z"/></g>
<g><path style="opacity:1" fill="#fcfcfc" d="M 239.5,324.5 C 245.89,324.431 251.89,325.931 257.5,329C 263.258,332.754 268.425,337.254 273,342.5C 274.069,350.713 276.902,358.213 281.5,365C 278.167,367 275.5,369.667 273.5,373C 265.772,370.16 257.772,367.827 249.5,366C 239.635,358.263 233.635,348.263 231.5,336C 232.327,330.833 234.994,326.999 239.5,324.5 Z"/></g>
<g><path style="opacity:1" fill="#fcfcfc" d="M 346.5,324.5 C 357.34,323.838 362.173,328.838 361,339.5C 358.36,349.815 352.86,358.315 344.5,365C 335.984,367.507 327.651,370.174 319.5,373C 317.516,370.017 315.183,367.35 312.5,365C 316.124,357.461 318.958,349.628 321,341.5C 327.873,333.163 336.373,327.497 346.5,324.5 Z"/></g>
<g><path style="opacity:1" fill="#fbfbfa" d="M 313.5,377.5 C 299.444,372.458 289.61,376.791 284,390.5C 283.118,395.353 283.618,400.019 285.5,404.5C 279.295,400.935 276.295,395.435 276.5,388C 278.673,372.905 287.339,366.571 302.5,369C 307.21,370.55 310.876,373.383 313.5,377.5 Z"/></g>
<g><path style="opacity:1" fill="#fbfbfb" d="M 233.5,372.5 C 245.985,371.597 257.652,374.264 268.5,380.5C 268.196,386.216 268.696,391.882 270,397.5C 252.257,408.353 234.09,409.186 215.5,400C 206.074,389.398 208.074,381.398 221.5,376C 225.543,374.509 229.543,373.342 233.5,372.5 Z"/></g>
<g><path style="opacity:1" fill="#fbfbfb" d="M 344.5,372.5 C 354.803,371.994 364.803,373.494 374.5,377C 385.19,383.521 386.19,391.187 377.5,400C 358.395,409.568 340.061,408.401 322.5,396.5C 324.399,391.22 325.066,385.886 324.5,380.5C 331.05,377.213 337.717,374.546 344.5,372.5 Z"/></g>
<g><path style="opacity:1" fill="#fde351" d="M 313.5,377.5 C 319.469,390.091 316.469,399.924 304.5,407C 299.167,409 293.833,409 288.5,407C 287.058,406.623 286.058,405.79 285.5,404.5C 283.618,400.019 283.118,395.353 284,390.5C 289.61,376.791 299.444,372.458 313.5,377.5 Z"/></g>
<g><path style="opacity:1" fill="#fcfcfc" d="M 271.5,404.5 C 272.552,404.351 273.552,404.517 274.5,405C 276.871,407.706 279.537,410.039 282.5,412C 277.493,419.851 273.993,428.351 272,437.5C 264.413,446.791 254.747,452.457 243,454.5C 235.716,453.548 231.882,449.381 231.5,442C 233.922,430.166 239.922,420.499 249.5,413C 257.676,412.003 265.009,409.17 271.5,404.5 Z"/></g>
<g><path style="opacity:1" fill="#fcfcfc" d="M 318.5,404.5 C 326.392,408.436 334.725,411.27 343.5,413C 351.303,419.796 357.136,427.963 361,437.5C 361.266,452.866 354.1,457.7 339.5,452C 332.517,448.253 326.351,443.419 321,437.5C 318.917,428.749 315.75,420.416 311.5,412.5C 313.856,409.814 316.189,407.147 318.5,404.5 Z"/></g>
<g><path style="opacity:1" fill="#fcfcfc" d="M 288.5,415.5 C 293.844,415.334 299.177,415.501 304.5,416C 315.514,433.693 316.347,451.86 307,470.5C 299.966,478.413 292.966,478.413 286,470.5C 276.613,451.702 277.446,433.369 288.5,415.5 Z"/></g>
</svg>
