<?xml version="1.0" encoding="UTF-8"?>
<!DOCTYPE svg PUBLIC "-//W3C//DTD SVG 1.1//EN" "http://www.w3.org/Graphics/SVG/1.1/DTD/svg11.dtd">
<svg xmlns="http://www.w3.org/2000/svg" version="1.1" width="512px" height="512px" style="shape-rendering:geometricPrecision; text-rendering:geometricPrecision; image-rendering:optimizeQuality; fill-rule:evenodd; clip-rule:evenodd" xmlns:xlink="http://www.w3.org/1999/xlink">
<g><path style="opacity:0.945" fill="#030403" d="M 262.5,65.5 C 335.834,65.3333 409.167,65.5 482.5,66C 483.416,66.3742 484.25,66.8742 485,67.5C 472.327,157.879 458.993,248.212 445,338.5C 444.667,361.167 444.333,383.833 444,406.5C 441.894,412.272 438.061,416.438 432.5,419C 392.533,420.631 352.533,420.965 312.5,420C 300.79,418.791 294.123,412.291 292.5,400.5C 250.725,433.775 204.058,443.275 152.5,429C 112.971,416.603 74.638,401.269 37.5,383C 34.2167,381.439 31.3834,379.273 29,376.5C 28.3333,375.167 28.3333,373.833 29,372.5C 33.6925,369.071 38.8592,366.571 44.5,365C 63.9306,336.902 88.9306,315.236 119.5,300C 123.642,296.038 127.308,291.704 130.5,287C 135.797,287.438 141.13,287.438 146.5,287C 152.5,284.667 158.5,282.333 164.5,280C 170,275.167 175.5,270.333 181,265.5C 182.654,260.858 184.487,256.358 186.5,252C 191.694,250.153 196.528,247.653 201,244.5C 202.126,240.251 202.792,235.918 203,231.5C 207.172,229.081 211.172,226.415 215,223.5C 215.333,218.5 215.667,213.5 216,208.5C 219.065,205.938 221.565,202.938 223.5,199.5C 221.234,195.753 219.234,191.92 217.5,188C 221.993,177.757 221.16,167.924 215,158.5C 210.711,152.542 206.044,146.876 201,141.5C 201.013,135.45 203.846,133.95 209.5,137C 231.831,148.998 248.331,166.498 259,189.5C 267.344,212.988 265.844,235.821 254.5,258C 260.894,258.183 267.227,257.516 273.5,256C 277.167,253.667 280.167,250.667 282.5,247C 274.139,187.282 266.639,127.449 260,67.5C 260.995,66.9341 261.828,66.2674 262.5,65.5 Z M 290.5,318.5 C 291.813,322.944 292.646,327.611 293,332.5C 293.5,345.162 293.667,357.829 293.5,370.5C 287.235,372.365 280.902,374.032 274.5,375.5C 270.638,375.047 267.138,373.714 264,371.5C 259.896,373.933 256.063,376.767 252.5,380C 243.203,381.398 233.87,381.732 224.5,381C 220.828,379.164 217.162,377.331 213.5,375.5C 209.877,376.656 206.211,377.656 202.5,378.5C 183.529,372.899 164.529,367.399 145.5,362C 133.614,359.514 121.614,357.848 109.5,357C 129.323,353.077 149.323,351.077 169.5,351C 172.601,352.966 175.768,354.8 179,356.5C 182.681,354.621 185.847,352.121 188.5,349C 203.371,347.114 218.204,344.947 233,342.5C 237.792,343.717 242.625,344.217 247.5,344C 249.543,342.292 251.21,340.292 252.5,338C 265.948,332.777 278.615,326.277 290.5,318.5 Z"/></g>
<g><path style="opacity:0.855" fill="#bcbcbc" d="M 310.5,74.5 C 318.65,73.5073 326.983,73.1739 335.5,73.5C 335.5,76.5 335.5,79.5 335.5,82.5C 335.167,82.5 334.833,82.5 334.5,82.5C 334.5,79.8333 334.5,77.1667 334.5,74.5C 326.5,74.5 318.5,74.5 310.5,74.5 Z"/></g>
<g><path style="opacity:0.936" fill="#d5d5d5" d="M 476.5,74.5 C 465.833,74.5 455.167,74.5 444.5,74.5C 444.5,83.8333 444.5,93.1667 444.5,102.5C 443.506,93.0144 443.173,83.3478 443.5,73.5C 454.679,73.1721 465.679,73.5054 476.5,74.5 Z"/></g>
<g><path style="opacity:1" fill="#f7f7f7" d="M 302.5,82.5 C 297.489,82.3341 292.489,82.5007 287.5,83C 278.904,87.3771 276.238,94.2104 279.5,103.5C 276.833,103.5 274.167,103.5 271.5,103.5C 270.171,93.534 269.171,83.534 268.5,73.5C 279.833,73.5 291.167,73.5 302.5,73.5C 302.5,76.5 302.5,79.5 302.5,82.5 Z"/></g>
<g><path style="opacity:1" fill="#fffefe" d="M 310.5,74.5 C 318.5,74.5 326.5,74.5 334.5,74.5C 334.5,77.1667 334.5,79.8333 334.5,82.5C 332.265,82.2053 330.265,82.5386 328.5,83.5C 324.638,84.5237 321.805,86.8571 320,90.5C 319.501,94.4862 319.334,98.4862 319.5,102.5C 316.5,102.5 313.5,102.5 310.5,102.5C 310.5,93.1667 310.5,83.8333 310.5,74.5 Z"/></g>
<g><path style="opacity:1" fill="#fcfcfc" d="M 367.5,82.5 C 360.176,81.855 355.176,84.855 352.5,91.5C 351.518,94.9619 351.185,98.6286 351.5,102.5C 348.5,102.5 345.5,102.5 342.5,102.5C 342.5,92.8333 342.5,83.1667 342.5,73.5C 350.833,73.5 359.167,73.5 367.5,73.5C 367.5,76.5 367.5,79.5 367.5,82.5 Z"/></g>
<g><path style="opacity:1" fill="#f5f5f4" d="M 399.5,82.5 C 387.009,83.3438 382.009,90.0105 384.5,102.5C 381.167,102.5 377.833,102.5 374.5,102.5C 374.5,92.8333 374.5,83.1667 374.5,73.5C 382.833,73.5 391.167,73.5 399.5,73.5C 399.5,76.5 399.5,79.5 399.5,82.5 Z"/></g>
<g><path style="opacity:1" fill="#fcfcfc" d="M 436.5,82.5 C 421.5,80.8333 414.833,87.5 416.5,102.5C 413.5,102.5 410.5,102.5 407.5,102.5C 407.5,92.8333 407.5,83.1667 407.5,73.5C 417.167,73.5 426.833,73.5 436.5,73.5C 436.5,76.5 436.5,79.5 436.5,82.5 Z"/></g>
<g><path style="opacity:1" fill="#fefefc" d="M 476.5,74.5 C 476.599,77.2372 476.265,79.9039 475.5,82.5C 459.477,79.8626 452.143,86.5293 453.5,102.5C 450.5,102.5 447.5,102.5 444.5,102.5C 444.5,93.1667 444.5,83.8333 444.5,74.5C 455.167,74.5 465.833,74.5 476.5,74.5 Z"/></g>
<g><path style="opacity:1" fill="#fce354" d="M 302.5,82.5 C 302.5,89.5 302.5,96.5 302.5,103.5C 294.833,103.5 287.167,103.5 279.5,103.5C 276.238,94.2104 278.904,87.3771 287.5,83C 292.489,82.5007 297.489,82.3341 302.5,82.5 Z"/></g>
<g><path style="opacity:1" fill="#ffe550" d="M 328.5,83.5 C 330.5,83.5 332.5,83.5 334.5,83.5C 334.5,89.8333 334.5,96.1667 334.5,102.5C 329.5,102.5 324.5,102.5 319.5,102.5C 319.334,98.4862 319.501,94.4862 320,90.5C 321.805,86.8571 324.638,84.5237 328.5,83.5 Z"/></g>
<g><path style="opacity:1" fill="#ffe551" d="M 367.5,82.5 C 367.5,89.1667 367.5,95.8333 367.5,102.5C 362.5,102.5 357.5,102.5 352.5,102.5C 352.5,98.8333 352.5,95.1667 352.5,91.5C 355.176,84.855 360.176,81.855 367.5,82.5 Z"/></g>
<g><path style="opacity:1" fill="#ffe551" d="M 399.5,82.5 C 399.5,89.1667 399.5,95.8333 399.5,102.5C 394.5,102.5 389.5,102.5 384.5,102.5C 382.009,90.0105 387.009,83.3438 399.5,82.5 Z"/></g>
<g><path style="opacity:1" fill="#fae152" d="M 436.5,82.5 C 436.5,89.5 436.5,96.5 436.5,103.5C 429.646,103.824 422.979,103.491 416.5,102.5C 414.833,87.5 421.5,80.8333 436.5,82.5 Z"/></g>
<g><path style="opacity:1" fill="#f9e051" d="M 475.5,82.5 C 475.008,89.4441 474.008,96.2774 472.5,103C 465.986,103.82 459.653,103.653 453.5,102.5C 452.143,86.5293 459.477,79.8626 475.5,82.5 Z"/></g>
<g><path style="opacity:0.89" fill="#c8b85b" d="M 328.5,83.5 C 330.265,82.5386 332.265,82.2053 334.5,82.5C 334.833,82.5 335.167,82.5 335.5,82.5C 335.5,89.5 335.5,96.5 335.5,103.5C 329.974,103.821 324.64,103.488 319.5,102.5C 324.5,102.5 329.5,102.5 334.5,102.5C 334.5,96.1667 334.5,89.8333 334.5,83.5C 332.5,83.5 330.5,83.5 328.5,83.5 Z"/></g>
<g><path style="opacity:0.886" fill="#d0c067" d="M 352.5,91.5 C 352.5,95.1667 352.5,98.8333 352.5,102.5C 357.5,102.5 362.5,102.5 367.5,102.5C 362.167,103.833 356.833,103.833 351.5,102.5C 351.185,98.6286 351.518,94.9619 352.5,91.5 Z"/></g>
<g><path style="opacity:0.878" fill="#b8a952" d="M 399.5,82.5 C 400.491,89.3134 400.825,96.3134 400.5,103.5C 394.974,103.821 389.64,103.488 384.5,102.5C 389.5,102.5 394.5,102.5 399.5,102.5C 399.5,95.8333 399.5,89.1667 399.5,82.5 Z"/></g>
<g><path style="opacity:1" fill="#fdfdfc" d="M 470.5,119.5 C 411.832,119.333 353.166,119.5 294.5,120C 287.029,122.427 283.029,127.593 282.5,135.5C 287.635,173.53 292.635,211.53 297.5,249.5C 293.057,248.978 290.39,246.645 289.5,242.5C 283.938,198.8 278.272,155.133 272.5,111.5C 338.833,110.167 405.167,110.167 471.5,111.5C 470.607,114.084 470.274,116.751 470.5,119.5 Z"/></g>
<g><path style="opacity:1" fill="#fee44f" d="M 470.5,119.5 C 468.315,132.46 466.315,145.46 464.5,158.5C 423.165,158.333 381.832,158.5 340.5,159C 339.944,159.383 339.611,159.883 339.5,160.5C 338.502,185.328 338.169,210.328 338.5,235.5C 337.209,235.263 336.209,235.596 335.5,236.5C 331.62,240.545 327.287,244.045 322.5,247C 315.966,248.373 309.466,249.873 303,251.5C 300.889,251.299 299.055,250.633 297.5,249.5C 292.635,211.53 287.635,173.53 282.5,135.5C 283.029,127.593 287.029,122.427 294.5,120C 353.166,119.5 411.832,119.333 470.5,119.5 Z"/></g>
<g><path style="opacity:1" fill="#f9fbfa" d="M 232.5,164.5 C 236.523,173.46 237.523,182.793 235.5,192.5C 236.334,195.876 237.501,199.21 239,202.5C 239.83,208.849 237.83,214.182 233,218.5C 233.013,224.055 232.013,229.388 230,234.5C 226.855,237.734 223.522,240.734 220,243.5C 218.892,254.281 213.058,261.114 202.5,264C 200.779,265.944 199.446,268.11 198.5,270.5C 193.458,271.845 188.458,273.012 183.5,274C 188.205,269.906 191.039,264.739 192,258.5C 197.708,256.397 202.874,253.397 207.5,249.5C 209.638,245.074 210.971,240.407 211.5,235.5C 222.049,231.081 226.382,223.081 224.5,211.5C 228.384,208.398 230.717,204.398 231.5,199.5C 230.235,195.142 228.569,190.976 226.5,187C 229.77,176.737 228.77,166.903 223.5,157.5C 223.667,157.167 223.833,156.833 224,156.5C 226.703,159.371 229.536,162.038 232.5,164.5 Z"/></g>
<g><path style="opacity:0.855" fill="#5f5628" d="M 339.5,160.5 C 339.5,185.833 339.5,211.167 339.5,236.5C 338.167,236.5 336.833,236.5 335.5,236.5C 336.209,235.596 337.209,235.263 338.5,235.5C 338.169,210.328 338.502,185.328 339.5,160.5 Z"/></g>
<g><path style="opacity:1" fill="#fdfdfd" d="M 346.5,165.5 C 385.167,165.5 423.833,165.5 462.5,165.5C 456.5,207.833 450.5,250.167 444.5,292.5C 411.833,292.5 379.167,292.5 346.5,292.5C 346.5,289.5 346.5,286.5 346.5,283.5C 349.157,283.838 351.49,283.171 353.5,281.5C 354.29,276.297 355.79,271.297 358,266.5C 371.638,253.863 384.971,240.863 398,227.5C 400.614,224.568 402.781,221.401 404.5,218C 404.233,214.836 402.567,213.836 399.5,215C 383.271,226.115 365.605,233.948 346.5,238.5C 346.5,214.167 346.5,189.833 346.5,165.5 Z"/></g>
<g><path style="opacity:1" fill="#4fe681" d="M 232.5,164.5 C 260.073,193.479 264.073,225.646 244.5,261C 241.845,261.564 239.179,262.064 236.5,262.5C 232.307,261.736 228.307,260.403 224.5,258.5C 223.833,258.667 223.167,258.833 222.5,259C 220.5,261.333 218.5,263.667 216.5,266C 210.486,267.504 204.486,269.004 198.5,270.5C 199.446,268.11 200.779,265.944 202.5,264C 213.058,261.114 218.892,254.281 220,243.5C 223.522,240.734 226.855,237.734 230,234.5C 232.013,229.388 233.013,224.055 233,218.5C 237.83,214.182 239.83,208.849 239,202.5C 237.501,199.21 236.334,195.876 235.5,192.5C 237.523,182.793 236.523,173.46 232.5,164.5 Z"/></g>
<g><path style="opacity:1" fill="#f9fbfa" d="M 362.5,252.5 C 355.533,253.221 348.533,253.721 341.5,254C 332.819,261.017 322.819,265.017 311.5,266C 304.846,265.537 298.179,265.203 291.5,265C 287.613,268.111 283.28,270.444 278.5,272C 235.291,276.635 193.291,286.968 152.5,303C 148.082,303.208 143.749,303.874 139.5,305C 135.843,307.658 132.509,310.658 129.5,314C 106.761,325.575 86.7608,340.742 69.5,359.5C 65.9468,359.844 62.4468,360.511 59,361.5C 58.5,361.167 58,360.833 57.5,360.5C 76.2812,336.773 99.2812,318.273 126.5,305C 128.833,302 131.167,299 133.5,296C 138.5,295.667 143.5,295.333 148.5,295C 171.929,285.524 195.929,277.857 220.5,272C 222.333,270.167 224.167,268.333 226,266.5C 229.016,268.505 232.349,269.505 236,269.5C 248.541,267.946 261.041,266.113 273.5,264C 279.401,262.117 284.234,258.617 288,253.5C 295.265,258.471 303.098,259.637 311.5,257C 321.474,256.24 329.807,252.24 336.5,245C 342.472,245.406 348.472,245.406 354.5,245C 362.835,241.65 371.168,238.65 379.5,236C 373.965,241.703 368.298,247.203 362.5,252.5 Z"/></g>
<g><path style="opacity:1" fill="#4ee780" d="M 362.5,252.5 C 358.896,255.602 355.396,258.935 352,262.5C 349.798,266.606 348.298,270.94 347.5,275.5C 342.231,275.599 337.231,276.766 332.5,279C 326.712,284.723 320.379,289.723 313.5,294C 311.5,297 309.5,300 307.5,303C 298.273,305.113 289.94,309.113 282.5,315C 272.074,320.547 261.408,325.547 250.5,330C 247.833,331.333 245.833,333.333 244.5,336C 238.195,335.576 231.862,335.576 225.5,336C 212.546,338.041 199.546,339.708 186.5,341C 183.905,343.213 181.072,345.047 178,346.5C 174.407,344.469 170.574,343.136 166.5,342.5C 144.584,343.52 122.918,346.354 101.5,351C 95.0128,352.94 88.6794,355.273 82.5,358C 78.1866,358.735 73.8533,359.235 69.5,359.5C 86.7608,340.742 106.761,325.575 129.5,314C 132.509,310.658 135.843,307.658 139.5,305C 143.749,303.874 148.082,303.208 152.5,303C 193.291,286.968 235.291,276.635 278.5,272C 283.28,270.444 287.613,268.111 291.5,265C 298.179,265.203 304.846,265.537 311.5,266C 322.819,265.017 332.819,261.017 341.5,254C 348.533,253.721 355.533,253.221 362.5,252.5 Z"/></g>
<g><path style="opacity:1" fill="#fcfbfa" d="M 339.5,298.5 C 334.54,302.288 329.707,306.288 325,310.5C 323.627,313.412 322.127,316.246 320.5,319C 309.98,320.177 305.98,326.011 308.5,336.5C 306.167,336.5 303.833,336.5 301.5,336.5C 300.41,328.789 299.577,321.122 299,313.5C 303.203,311.324 307.703,310.158 312.5,310C 314.127,307.246 315.627,304.412 317,301.5C 324,295.833 331,290.167 338,284.5C 338.223,289.25 338.723,293.916 339.5,298.5 Z"/></g>
<g><path style="opacity:1" fill="#fce24f" d="M 339.5,298.5 C 374.1,299.16 408.767,299.827 443.5,300.5C 441.128,312.767 439.128,325.101 437.5,337.5C 394.33,337.832 351.33,337.499 308.5,336.5C 305.98,326.011 309.98,320.177 320.5,319C 322.127,316.246 323.627,313.412 325,310.5C 329.707,306.288 334.54,302.288 339.5,298.5 Z"/></g>
<g><path style="opacity:1" fill="#fbfbfb" d="M 301.5,344.5 C 346.5,344.5 391.5,344.5 436.5,344.5C 436.5,358.833 436.5,373.167 436.5,387.5C 399.832,387.333 363.165,387.5 326.5,388C 323.833,390 323.833,392 326.5,394C 363.165,394.5 399.832,394.667 436.5,394.5C 437.041,399.449 436.208,404.116 434,408.5C 432.2,410.317 430.034,411.484 427.5,412C 388.5,412.667 349.5,412.667 310.5,412C 307.375,411.021 304.875,409.187 303,406.5C 301.524,401.924 301.19,397.257 302,392.5C 310.806,384.605 319.14,376.272 327,367.5C 330.673,363.841 333.506,359.674 335.5,355C 334.862,351.707 332.862,350.707 329.5,352C 320.856,358.155 311.522,362.989 301.5,366.5C 301.5,359.167 301.5,351.833 301.5,344.5 Z"/></g>
<g><path style="opacity:1" fill="#fafbfb" d="M 290.5,391.5 C 286.139,392.34 281.805,393.34 277.5,394.5C 270.834,392.415 264.834,393.581 259.5,398C 247.539,399.504 235.539,399.838 223.5,399C 220.408,397.136 217.074,395.969 213.5,395.5C 209.191,396.465 204.857,396.631 200.5,396C 181.955,390.263 163.288,384.93 144.5,380C 124.99,376.317 105.323,374.984 85.5,376C 74.7889,376.974 64.4555,379.141 54.5,382.5C 50.5577,380.529 46.5577,378.529 42.5,376.5C 41.1667,375.833 41.1667,375.167 42.5,374.5C 53.8192,370.254 65.4859,367.42 77.5,366C 104.265,363.627 130.599,365.961 156.5,373C 171.495,378.11 186.662,382.61 202,386.5C 205.333,385.833 208.667,385.167 212,384.5C 215.482,385.967 218.982,387.467 222.5,389C 233.193,389.65 243.86,389.316 254.5,388C 258.258,386.077 261.591,383.577 264.5,380.5C 268.809,383.257 273.475,384.091 278.5,383C 290.501,379.556 302.168,375.556 313.5,371C 306.557,378.783 298.891,385.617 290.5,391.5 Z"/></g>
<g><path style="opacity:1" fill="#4fe780" d="M 290.5,391.5 C 253.254,423.312 210.588,434.145 162.5,424C 125.422,412.591 89.4216,398.758 54.5,382.5C 64.4555,379.141 74.7889,376.974 85.5,376C 105.323,374.984 124.99,376.317 144.5,380C 163.288,384.93 181.955,390.263 200.5,396C 204.857,396.631 209.191,396.465 213.5,395.5C 217.074,395.969 220.408,397.136 223.5,399C 235.539,399.838 247.539,399.504 259.5,398C 264.834,393.581 270.834,392.415 277.5,394.5C 281.805,393.34 286.139,392.34 290.5,391.5 Z"/></g>
</svg>
